<svg width="40" height="40" viewBox="0 0 40 40" fill="none" xmlns="http://www.w3.org/2000/svg">
<path d="M20 0C8.96 0 0 8.96 0 20C0 31.04 8.96 40 20 40C31.04 40 40 31.04 40 20C40 8.96 31.04 0 20 0ZM34.92 14.24L29.36 16.54C28.8593 15.1921 28.0727 13.9686 27.0542 12.9536C26.0357 11.9386 24.8096 11.1561 23.46 10.66L25.76 5.1C29.96 6.7 33.3 10.04 34.92 14.24ZM20 26C16.68 26 14 23.32 14 20C14 16.68 16.68 14 20 14C23.32 14 26 16.68 26 20C26 23.32 23.32 26 20 26ZM14.26 5.08L16.6 10.64C15.2346 11.1376 13.9941 11.9268 12.9648 12.9526C11.9355 13.9785 11.1422 15.2163 10.64 16.58L5.08 14.26C5.88154 12.172 7.11296 10.2759 8.69441 8.69441C10.2759 7.11296 12.172 5.88154 14.26 5.08ZM5.08 25.74L10.64 23.44C11.1389 24.8 11.9291 26.0345 12.9551 27.0571C13.9812 28.0797 15.2183 28.8657 16.58 29.36L14.24 34.92C12.157 34.1139 10.2658 32.8807 8.68824 31.2996C7.11063 29.7186 5.88151 27.8247 5.08 25.74ZM25.76 34.92L23.46 29.36C24.8156 28.8574 26.0456 28.0658 27.0644 27.04C28.0833 26.0143 28.8666 24.779 29.36 23.42L34.92 25.76C34.1161 27.8411 32.886 29.731 31.3085 31.3085C29.731 32.886 27.8411 34.1161 25.76 34.92Z" fill="#FAFAFA"/>
</svg>
