<svg width="48" height="40" viewBox="0 0 48 40" fill="none" xmlns="http://www.w3.org/2000/svg">
<path d="M17.1498 29.9849H40.5943C41.3769 29.9849 42.06 29.342 42.06 28.478C42.06 27.614 41.3769 26.9711 40.5943 26.9711H17.4909C16.3458 26.9711 15.6429 26.1671 15.462 24.9423L15.1406 22.8329H40.6338C43.5669 22.8329 45.0738 21.0243 45.4955 18.152L47.1026 7.52429C47.1457 7.27198 47.1726 7.01718 47.1832 6.76143C47.1832 5.79715 46.4598 5.13372 45.3549 5.13372H12.5495L12.1672 2.58286C11.9666 1.03572 11.4043 0.251434 9.35575 0.251434H2.30318C1.50004 0.251434 0.816895 0.956006 0.816895 1.76001C0.816895 2.58286 1.50004 3.28658 2.30404 3.28658H9.09347L12.3078 25.3443C12.7303 28.1969 14.2363 29.9849 17.1498 29.9849ZM43.7675 8.16715L42.3429 17.7903C42.1818 19.0357 41.5192 19.7994 40.3338 19.7994L14.7 19.8191L12.9918 8.16715H43.7675ZM18.7372 39.7486C19.1656 39.7521 19.5904 39.6704 19.9868 39.508C20.3833 39.3457 20.7435 39.1062 21.0464 38.8032C21.3493 38.5003 21.5889 38.1401 21.7512 37.7437C21.9135 37.3472 21.9953 36.9224 21.9918 36.494C21.9937 36.0661 21.9108 35.642 21.7479 35.2463C21.5851 34.8505 21.3454 34.491 21.0428 34.1884C20.7402 33.8858 20.3807 33.6461 19.9849 33.4832C19.5892 33.3204 19.1651 33.2375 18.7372 33.2394C16.9098 33.2394 15.4629 34.6863 15.4629 36.494C15.4629 38.3223 16.9098 39.7486 18.7372 39.7486ZM37.5206 39.7486C39.3489 39.7486 40.7949 38.3223 40.7949 36.494C40.7949 34.6854 39.3489 33.2394 37.5206 33.2394C35.7129 33.2394 34.2463 34.6863 34.2463 36.494C34.2463 38.3223 35.7129 39.7486 37.5206 39.7486Z" fill="#303030"/>
</svg>
