<svg width="23" height="19" viewBox="0 0 23 19" fill="none" xmlns="http://www.w3.org/2000/svg">
<path d="M0.391357 0.759586C0.391357 1.15387 0.718697 1.49107 1.10395 1.49107H4.35721L5.89739 12.0604C6.09987 13.4272 6.8215 14.284 8.21752 14.284H19.4514C19.8264 14.284 20.1537 13.976 20.1537 13.5624C20.1537 13.1484 19.8264 12.8403 19.4514 12.8403H8.38098C7.83227 12.8403 7.49548 12.4551 7.40882 11.8682L7.2548 10.8574H19.4703C20.8757 10.8574 21.5978 9.9908 21.7998 8.6145L22.5699 3.52205C22.5906 3.40115 22.6035 3.27906 22.6085 3.15651C22.6085 2.69446 22.2619 2.37657 21.7325 2.37657H6.02266L5.83004 1.15428C5.73393 0.412943 5.4645 0.0371399 4.48289 0.0371399H1.10354C0.718697 0.0371399 0.391357 0.374336 0.391357 0.759586ZM7.40923 17.403C7.40923 18.279 8.10252 18.9624 8.97816 18.9624C9.18343 18.9641 9.38698 18.925 9.57695 18.8472C9.76692 18.7694 9.93951 18.6546 10.0847 18.5095C10.2298 18.3643 10.3446 18.1917 10.4224 18.0017C10.5002 17.8118 10.5393 17.6082 10.5376 17.403C10.5386 17.1979 10.4989 16.9947 10.4208 16.8051C10.3428 16.6155 10.2279 16.4432 10.0829 16.2982C9.93795 16.1532 9.76566 16.0383 9.57604 15.9603C9.38642 15.8823 9.18321 15.8426 8.97816 15.8435C8.10252 15.8435 7.40923 16.5368 7.40923 17.403ZM16.4096 17.403C16.4096 18.279 17.1124 18.9624 17.9786 18.9624C18.8546 18.9624 19.5475 18.279 19.5475 17.403C19.5475 16.5364 18.8546 15.8435 17.9786 15.8435C17.1124 15.8435 16.4096 16.5368 16.4096 17.403Z" fill="#FAFAFA"/>
</svg>
