<svg width="48" height="40" viewBox="0 0 48 40" fill="none" xmlns="http://www.w3.org/2000/svg">
<path d="M0.816895 1.75915C0.816895 2.58201 1.50004 3.28572 2.30404 3.28572H9.09347L12.3078 25.3434C12.7303 28.196 14.2363 29.984 17.1498 29.984H40.5943C41.3769 29.984 42.06 29.3411 42.06 28.478C42.06 27.614 41.3769 26.9711 40.5943 26.9711H17.4909C16.3458 26.9711 15.6429 26.1671 15.462 24.9423L15.1406 22.8329H40.6338C43.5669 22.8329 45.0738 21.0243 45.4955 18.152L47.1026 7.52429C47.1457 7.27198 47.1726 7.01718 47.1832 6.76143C47.1832 5.79715 46.4598 5.13372 45.3549 5.13372H12.5692L12.1672 2.58286C11.9666 1.03572 11.4043 0.251434 9.35575 0.251434H2.30318C1.50004 0.251434 0.816895 0.955148 0.816895 1.75915ZM15.4629 36.4931C15.4629 38.3214 16.9098 39.7477 18.7372 39.7477C19.1656 39.7513 19.5904 39.6695 19.9868 39.5072C20.3833 39.3449 20.7435 39.1053 21.0464 38.8024C21.3493 38.4995 21.5889 38.1393 21.7512 37.7428C21.9135 37.3463 21.9953 36.9215 21.9918 36.4931C21.9937 36.0652 21.9108 35.6411 21.7479 35.2454C21.5851 34.8497 21.3454 34.4901 21.0428 34.1875C20.7402 33.8849 20.3807 33.6453 19.9849 33.4824C19.5892 33.3195 19.1651 33.2366 18.7372 33.2386C16.9098 33.2386 15.4629 34.6854 15.4629 36.4931ZM34.2463 36.4931C34.2463 38.3214 35.7129 39.7477 37.5206 39.7477C39.3489 39.7477 40.7949 38.3214 40.7949 36.4931C40.7949 34.6846 39.3489 33.2386 37.5206 33.2386C35.7129 33.2386 34.2463 34.6854 34.2463 36.4931Z" fill="#303030"/>
</svg>
