<svg width="48" height="44" viewBox="0 0 48 44" fill="none" xmlns="http://www.w3.org/2000/svg">
<path d="M33.6 22.9H18.3V5.19999C18.3 3.38842 19.7884 1.89999 21.6 1.89999H43.2C45.0116 1.89999 46.5 3.38842 46.5 5.19999V19.6C46.5 21.4135 45.0121 22.9 43.2 22.9H40.8H39.3V24.4V27.9787L34.6607 23.3393L34.2213 22.9H33.6ZM29.7 28.7824V31.6C29.7 33.4116 28.2116 34.9 26.4 34.9H14.4H13.7787L13.3393 35.3393L8.7 39.9787V36.4V34.9H7.2H4.8C2.98843 34.9 1.5 33.4116 1.5 31.6V17.2C1.5 15.3884 2.98843 13.9 4.8 13.9H12.42V27.28V27.2824V28.7824H13.92H29.7Z" stroke="#303030" stroke-width="3"/>
</svg>
