<svg width="48" height="44" viewBox="0 0 48 44" fill="none" xmlns="http://www.w3.org/2000/svg">
<path d="M13.92 27.28V12.4H4.8C2.16 12.4 0 14.56 0 17.2V31.6C0 34.24 2.16 36.4 4.8 36.4H7.2V43.6L14.4 36.4H26.4C29.04 36.4 31.2 34.24 31.2 31.6V27.232C31.0421 27.2649 30.8813 27.2818 30.72 27.2824H13.92V27.28ZM43.2 0.399994H21.6C18.96 0.399994 16.8 2.55999 16.8 5.19999V24.4H33.6L40.8 31.6V24.4H43.2C45.84 24.4 48 22.2424 48 19.6V5.19999C48 2.55999 45.84 0.399994 43.2 0.399994Z" fill="#303030"/>
</svg>
