<svg width="45" height="45" viewBox="0 0 45 45" fill="none" xmlns="http://www.w3.org/2000/svg">
<circle cx="22.5" cy="22.5" r="22.5" fill="#FAFAFA"/>
<path fill-rule="evenodd" clip-rule="evenodd" d="M10.551 14.0511C11.8637 12.7388 13.6438 12.0016 15.5 12.0016C17.3561 12.0016 19.1363 12.7388 20.449 14.0511L22.5 16.1003L24.551 14.0511C25.1967 13.3825 25.9691 12.8492 26.8231 12.4824C27.6772 12.1155 28.5957 11.9224 29.5252 11.9143C30.4546 11.9063 31.3764 12.0834 32.2366 12.4353C33.0969 12.7873 33.8785 13.3071 34.5357 13.9643C35.193 14.6216 35.7128 15.4031 36.0647 16.2634C36.4167 17.1237 36.5938 18.0454 36.5857 18.9749C36.5776 19.9043 36.3845 20.8229 36.0177 21.6769C35.6508 22.5309 35.1175 23.3034 34.449 23.9491L22.5 35.8998L10.551 23.9491C9.23867 22.6364 8.50146 20.8562 8.50146 19.0001C8.50146 17.1439 9.23867 15.3638 10.551 14.0511V14.0511Z" stroke="#969AA8" stroke-width="2" stroke-linejoin="round"/>
</svg>
