<svg width="32" height="32" viewBox="0 0 32 32" fill="none" xmlns="http://www.w3.org/2000/svg">
<path d="M2.66659 3.99984V2.6665C2.31296 2.6665 1.97382 2.80698 1.72378 3.05703C1.47373 3.30708 1.33325 3.64622 1.33325 3.99984H2.66659ZM17.3333 3.99984H18.6666C18.6666 3.64622 18.5261 3.30708 18.2761 3.05703C18.026 2.80698 17.6869 2.6665 17.3333 2.6665V3.99984ZM17.3333 11.9998V10.6665C16.9796 10.6665 16.6405 10.807 16.3904 11.057C16.1404 11.3071 15.9999 11.6462 15.9999 11.9998H17.3333ZM2.66659 5.33317H17.3333V2.6665H2.66659V5.33317ZM15.9999 3.99984V25.3332H18.6666V3.99984H15.9999ZM3.99992 22.6665V3.99984H1.33325V22.6665H3.99992ZM17.3333 13.3332H23.9999V10.6665H17.3333V13.3332ZM27.9999 17.3332V22.6665H30.6666V17.3332H27.9999ZM18.6666 25.3332V11.9998H15.9999V25.3332H18.6666ZM24.9426 26.2758C24.6926 26.5258 24.3535 26.6662 23.9999 26.6662C23.6464 26.6662 23.3073 26.5258 23.0573 26.2758L21.1719 28.1612C21.922 28.9111 22.9393 29.3323 23.9999 29.3323C25.0606 29.3323 26.0778 28.9111 26.8279 28.1612L24.9426 26.2758ZM23.0573 24.3905C23.3073 24.1405 23.6464 24.0001 23.9999 24.0001C24.3535 24.0001 24.6926 24.1405 24.9426 24.3905L26.8279 22.5052C26.0778 21.7553 25.0606 21.334 23.9999 21.334C22.9393 21.334 21.922 21.7553 21.1719 22.5052L23.0573 24.3905ZM8.94258 26.2758C8.69255 26.5258 8.35347 26.6662 7.99992 26.6662C7.64637 26.6662 7.30729 26.5258 7.05725 26.2758L5.17192 28.1612C5.92203 28.9111 6.93926 29.3323 7.99992 29.3323C9.06058 29.3323 10.0778 28.9111 10.8279 28.1612L8.94258 26.2758ZM7.05725 24.3905C7.30729 24.1405 7.64637 24.0001 7.99992 24.0001C8.35347 24.0001 8.69255 24.1405 8.94258 24.3905L10.8279 22.5052C10.0778 21.7553 9.06058 21.334 7.99992 21.334C6.93926 21.334 5.92203 21.7553 5.17192 22.5052L7.05725 24.3905ZM24.9426 24.3905C25.2039 24.6505 25.3333 24.9905 25.3333 25.3332H27.9999C27.9999 24.3118 27.6093 23.2852 26.8279 22.5052L24.9426 24.3905ZM25.3333 25.3332C25.3332 25.6868 25.1927 26.0258 24.9426 26.2758L26.8279 28.1612C27.5781 27.4112 27.9997 26.3939 27.9999 25.3332H25.3333ZM21.3333 23.9998H17.3333V26.6665H21.3333V23.9998ZM23.0573 26.2758C22.8072 26.0258 22.6667 25.6868 22.6666 25.3332H19.9999C19.9999 26.3545 20.3906 27.3812 21.1719 28.1612L23.0573 26.2758ZM22.6666 25.3332C22.6667 24.9796 22.8072 24.6405 23.0573 24.3905L21.1719 22.5052C20.4217 23.2551 20.0001 24.2724 19.9999 25.3332H22.6666ZM7.05725 26.2758C6.80719 26.0258 6.66666 25.6868 6.66659 25.3332H3.99992C3.99992 26.3545 4.39059 27.3812 5.17192 28.1612L7.05725 26.2758ZM6.66659 25.3332C6.66666 24.9796 6.80719 24.6405 7.05725 24.3905L5.17192 22.5052C4.42172 23.2551 4.00015 24.2724 3.99992 25.3332H6.66659ZM17.3333 23.9998H10.6666V26.6665H17.3333V23.9998ZM8.94258 24.3905C9.20392 24.6505 9.33325 24.9905 9.33325 25.3332H11.9999C11.9999 24.3118 11.6093 23.2852 10.8279 22.5052L8.94258 24.3905ZM9.33325 25.3332C9.33318 25.6868 9.19265 26.0258 8.94258 26.2758L10.8279 28.1612C11.5781 27.4112 11.9997 26.3939 11.9999 25.3332H9.33325ZM27.9999 22.6665C27.9999 23.0201 27.8594 23.3593 27.6094 23.6093C27.3593 23.8594 27.0202 23.9998 26.6666 23.9998V26.6665C27.7275 26.6665 28.7449 26.2451 29.495 25.4949C30.2452 24.7448 30.6666 23.7274 30.6666 22.6665H27.9999ZM23.9999 13.3332C25.0608 13.3332 26.0782 13.7546 26.8283 14.5047C27.5785 15.2549 27.9999 16.2723 27.9999 17.3332H30.6666C30.6666 16.4577 30.4941 15.5908 30.1591 14.7819C29.8241 13.9731 29.333 13.2382 28.714 12.6191C28.0949 12.0001 27.36 11.509 26.5511 11.174C25.7423 10.8389 24.8754 10.6665 23.9999 10.6665V13.3332ZM1.33325 22.6665C1.33325 23.7274 1.75468 24.7448 2.50482 25.4949C3.25497 26.2451 4.27239 26.6665 5.33325 26.6665V23.9998C4.97963 23.9998 4.64049 23.8594 4.39044 23.6093C4.14039 23.3593 3.99992 23.0201 3.99992 22.6665H1.33325Z" fill="#303030"/>
</svg>
