<svg width="32" height="32" viewBox="0 0 32 32" fill="none" xmlns="http://www.w3.org/2000/svg">
<path d="M6.00011 4H26.0001L15.9801 16.6L6.00011 4ZM0.500112 3.22C4.54011 8.4 12.0001 18 12.0001 18V30C12.0001 31.1 12.9001 32 14.0001 32H18.0001C19.1001 32 20.0001 31.1 20.0001 30V18C20.0001 18 27.4401 8.4 31.4801 3.22C31.7093 2.92475 31.851 2.57106 31.8891 2.19921C31.9271 1.82737 31.86 1.45231 31.6954 1.11674C31.5307 0.781175 31.2751 0.498587 30.9577 0.301153C30.6404 0.10372 30.2739 -0.000624071 29.9001 2.80808e-06H2.08011C0.420112 2.80808e-06 -0.519888 1.9 0.500112 3.22Z" fill="#FAFAFA"/>
</svg>
