<svg width="48" height="24" viewBox="0 0 48 24" fill="none" xmlns="http://www.w3.org/2000/svg">
<path d="M24 11.7086C26.9871 11.7086 29.4223 9.04717 29.4223 5.80888C29.4223 2.60745 27 0.0720215 24 0.0720215C21.0257 0.0720215 18.5777 2.64516 18.5777 5.83374C18.5897 9.06002 21.0249 11.7086 24 11.7086ZM9.54 11.9837C12.1251 11.9837 14.2466 9.66088 14.2466 6.81174C14.2466 4.02602 12.1509 1.77859 9.54 1.77859C6.954 1.77859 4.81971 4.06288 4.83257 6.83659C4.84543 9.67374 6.954 11.9837 9.54 11.9837ZM38.4729 11.9837C41.046 11.9837 43.1674 9.67374 43.1674 6.83659C43.1803 4.06288 41.046 1.77859 38.4729 1.77859C35.85 1.77859 33.7534 4.02517 33.7534 6.81174C33.7534 9.66088 35.8749 11.9837 38.4729 11.9837ZM24 9.81259C22.1674 9.81259 20.598 8.05545 20.598 5.83374C20.598 3.64974 22.1426 1.96802 24.0009 1.96802C25.8703 1.96802 27.402 3.62488 27.402 5.80802C27.402 8.03059 25.8574 9.81259 24 9.81259ZM9.54 10.1143C8.00829 10.1143 6.70286 8.64516 6.70286 6.83745C6.70286 5.06831 7.99543 3.64888 9.54 3.64888C11.1214 3.64888 12.3891 5.04259 12.3891 6.81259C12.3891 8.64517 11.0837 10.1143 9.54 10.1143ZM38.4729 10.1143C36.9163 10.1143 35.6109 8.64517 35.6109 6.81259C35.6109 5.04259 36.8786 3.64974 38.4729 3.64974C40.0166 3.64974 41.2971 5.06831 41.2971 6.83831C41.2971 8.64517 40.0037 10.1143 38.4729 10.1143ZM2.56029 23.4943H12.414C11.8114 23.1557 11.3469 22.4023 11.4351 21.6369H2.24657C1.99543 21.6369 1.87029 21.5366 1.87029 21.2983C1.87029 18.1852 5.42229 15.2726 9.52714 15.2726C11.1086 15.2726 12.5271 15.6497 13.7443 16.3646C14.1479 15.8527 14.6261 15.4043 15.1629 15.0343C13.5437 13.9672 11.598 13.4152 9.52714 13.4152C4.26771 13.4152 0 17.2312 0 21.4115C0 22.8043 0.853714 23.4943 2.56029 23.4943ZM45.4517 23.4943C47.1463 23.4943 48 22.8043 48 21.4115C48 17.2312 43.7314 13.4152 38.4729 13.4152C36.402 13.4152 34.4683 13.9672 32.8371 15.0352C33.402 15.4235 33.8657 15.8632 34.2686 16.3646C35.4729 15.6497 36.9034 15.2726 38.4729 15.2726C42.5777 15.2726 46.1297 18.1852 46.1297 21.2983C46.1297 21.5366 46.0166 21.6369 45.7654 21.6369H36.5769C36.6523 22.4023 36.2006 23.1557 35.598 23.4943H45.4517ZM16.1169 23.4943H31.8831C33.966 23.4943 34.9586 22.8669 34.9586 21.486C34.9586 18.1972 30.8031 13.44 24 13.44C17.184 13.44 13.0286 18.1972 13.0286 21.486C13.0286 22.8669 14.0211 23.4943 16.1169 23.4943ZM15.5143 21.6C15.1886 21.6 15.0506 21.5117 15.0506 21.2486C15.0506 19.1889 18.2391 15.336 24 15.336C29.7489 15.336 32.9374 19.1889 32.9374 21.2477C32.9374 21.5117 32.8114 21.5992 32.4857 21.5992L15.5143 21.6Z" fill="#FAFAFA"/>
</svg>
