<svg width="48" height="24" viewBox="0 0 48 24" fill="none" xmlns="http://www.w3.org/2000/svg">
<path d="M24 11.2509C26.7377 11.2509 29.0923 8.80631 29.0923 5.62289C29.0923 2.47803 26.7249 0.148315 24 0.148315C21.2751 0.148315 18.9069 2.52946 18.9069 5.6486C18.9069 8.80632 21.2623 11.2509 24 11.2509ZM9.34543 11.5432C11.7137 11.5432 13.7769 9.4046 13.7769 6.64203C13.7769 3.90432 11.7009 1.87974 9.34543 1.87974C6.97714 1.87974 4.88914 3.95489 4.902 6.66689C4.902 9.4046 6.96429 11.544 9.34543 11.544M38.6546 11.544C41.0357 11.544 43.098 9.40546 43.098 6.66774C43.098 3.95574 41.0229 1.8806 38.6546 1.8806C36.2991 1.8806 34.2231 3.90517 34.2231 6.64203C34.2231 9.40546 36.2863 11.544 38.6546 11.544ZM2.24057 23.0409H11.9177C10.5934 21.1183 12.21 17.2475 14.9477 15.1337C13.5334 14.1917 11.7137 13.4915 9.33343 13.4915C3.58971 13.4915 0 17.7309 0 21.258C0 22.404 0.636857 23.0409 2.24057 23.0409ZM45.7594 23.0409C47.376 23.0409 48 22.404 48 21.258C48 17.7309 44.4094 13.4915 38.6674 13.4915C36.2863 13.4915 34.4657 14.1917 33.0531 15.1337C35.79 17.2475 37.4074 21.1183 36.0831 23.0409H45.7594ZM15.9909 23.0409H31.9954C33.9943 23.0409 34.7074 22.4675 34.7074 21.3472C34.7074 18.0626 30.5949 13.53 23.9871 13.53C17.3923 13.53 13.2797 18.0626 13.2797 21.3472C13.2797 22.4675 13.992 23.0409 15.9909 23.0409Z" fill="#FAFAFA"/>
</svg>
