<svg width="28" height="28" viewBox="0 0 28 28" fill="none" xmlns="http://www.w3.org/2000/svg">
<path d="M14.0001 0.666748C6.64008 0.666748 0.666748 6.64008 0.666748 14.0001C0.666748 21.3601 6.64008 27.3334 14.0001 27.3334C21.3601 27.3334 27.3334 21.3601 27.3334 14.0001C27.3334 6.64008 21.3601 0.666748 14.0001 0.666748ZM14.0001 24.6667C8.12008 24.6667 3.33341 19.8801 3.33341 14.0001C3.33341 8.12008 8.12008 3.33341 14.0001 3.33341C19.8801 3.33341 24.6667 8.12008 24.6667 14.0001C24.6667 19.8801 19.8801 24.6667 14.0001 24.6667ZM12.6667 19.3334H15.3334V22.0001H12.6667V19.3334ZM14.8134 6.05341C12.0667 5.65341 9.64008 7.34675 8.90675 9.77341C8.66675 10.5467 9.25341 11.3334 10.0667 11.3334H10.3334C10.8801 11.3334 11.3201 10.9467 11.5067 10.4401C11.9334 9.25341 13.2001 8.44008 14.5734 8.73341C15.8401 9.00008 16.7734 10.2401 16.6667 11.5334C16.5334 13.3201 14.5067 13.7067 13.4001 15.3734C13.4001 15.3867 13.3867 15.3867 13.3867 15.4001C13.3734 15.4267 13.3601 15.4401 13.3467 15.4667C13.2267 15.6667 13.1067 15.8934 13.0134 16.1334C13.0001 16.1734 12.9734 16.2001 12.9601 16.2401C12.9467 16.2667 12.9467 16.2934 12.9334 16.3334C12.7734 16.7867 12.6667 17.3334 12.6667 18.0001H15.3334C15.3334 17.4401 15.4801 16.9734 15.7067 16.5734C15.7334 16.5334 15.7467 16.4934 15.7734 16.4534C15.8801 16.2667 16.0134 16.0934 16.1467 15.9334C16.1601 15.9201 16.1734 15.8934 16.1867 15.8801C16.3201 15.7201 16.4667 15.5734 16.6267 15.4267C17.9067 14.2134 19.6401 13.2267 19.2801 10.6801C18.9601 8.36008 17.1334 6.40008 14.8134 6.05341Z" fill="#303030"/>
</svg>
