<svg width="48" height="48" viewBox="0 0 48 48" fill="none" xmlns="http://www.w3.org/2000/svg">
<g clip-path="url(#clip0_93_193)">
<path d="M44.9467 23.0533L24.9467 3.05331C24.6969 2.80498 24.359 2.66559 24.0067 2.66559C23.6545 2.66559 23.3165 2.80498 23.0667 3.05331L3.0667 23.0533C2.84827 23.3084 2.73413 23.6365 2.74709 23.972C2.76005 24.3076 2.89916 24.6259 3.13662 24.8634C3.37408 25.1009 3.6924 25.24 4.02797 25.2529C4.36353 25.2659 4.69163 25.1518 4.9467 24.9333L24 5.87998L43.0534 24.9466C43.3084 25.1651 43.6365 25.2792 43.9721 25.2663C44.3077 25.2533 44.626 25.1142 44.8635 24.8767C45.1009 24.6393 45.24 24.321 45.253 23.9854C45.2659 23.6498 45.1518 23.3217 44.9334 23.0666L44.9467 23.0533Z" fill="#FAFAFA"/>
<path d="M37.3333 42.6667H30.6667V29.3333H17.3333V42.6667H10.6667V24L8 26.6667V42.6667C8 43.3739 8.28095 44.0522 8.78105 44.5523C9.28115 45.0524 9.95942 45.3333 10.6667 45.3333H20V32H28V45.3333H37.3333C38.0406 45.3333 38.7189 45.0524 39.219 44.5523C39.719 44.0522 40 43.3739 40 42.6667V26.3467L37.3333 23.68V42.6667Z" fill="#FAFAFA"/>
</g>
<defs>
<clipPath id="clip0_93_193">
<rect width="48" height="48" fill="white"/>
</clipPath>
</defs>
</svg>
