<svg width="48" height="48" viewBox="0 0 48 48" fill="none" xmlns="http://www.w3.org/2000/svg">
<g clip-path="url(#clip0_93_194)">
<path d="M44 25.3333C43.8246 25.3344 43.6506 25.3007 43.4882 25.2344C43.3257 25.168 43.178 25.0703 43.0534 24.9467L24 5.88001L4.9467 24.9467C4.69163 25.1651 4.36353 25.2793 4.02797 25.2663C3.6924 25.2533 3.37408 25.1142 3.13662 24.8768C2.89916 24.6393 2.76005 24.321 2.74709 23.9854C2.73413 23.6499 2.84827 23.3217 3.0667 23.0667L23.0667 3.06668C23.3165 2.81834 23.6545 2.67896 24.0067 2.67896C24.359 2.67896 24.6969 2.81834 24.9467 3.06668L44.9467 23.0667C45.1302 23.2539 45.2544 23.491 45.3039 23.7484C45.3534 24.0057 45.3259 24.272 45.2249 24.5139C45.1239 24.7557 44.9538 24.9625 44.736 25.1082C44.5181 25.254 44.2621 25.3323 44 25.3333Z" fill="#FAFAFA"/>
<path d="M24 10.3867L8 26.44V42.6667C8 43.3739 8.28095 44.0522 8.78105 44.5523C9.28115 45.0524 9.95942 45.3333 10.6667 45.3333H20V32H28V45.3333H37.3333C38.0406 45.3333 38.7189 45.0524 39.219 44.5523C39.719 44.0522 40 43.3739 40 42.6667V26.3467L24 10.3867Z" fill="#FAFAFA"/>
</g>
<defs>
<clipPath id="clip0_93_194">
<rect width="48" height="48" fill="white"/>
</clipPath>
</defs>
</svg>
