<svg width="27" height="25" viewBox="0 0 27 25" fill="none" xmlns="http://www.w3.org/2000/svg">
<path d="M13.7161 7.49357C10.5281 7.49357 7.95663 9.90468 7.95663 12.8939C7.95663 15.8831 10.5281 18.2942 13.7161 18.2942C16.9041 18.2942 19.4756 15.8831 19.4756 12.8939C19.4756 9.90468 16.9041 7.49357 13.7161 7.49357ZM13.7161 16.4048C11.6559 16.4048 9.97169 14.8303 9.97169 12.8939C9.97169 10.9575 11.6509 9.38298 13.7161 9.38298C15.7813 9.38298 17.4605 10.9575 17.4605 12.8939C17.4605 14.8303 15.7763 16.4048 13.7161 16.4048ZM21.0545 7.27266C21.0545 7.97297 20.453 8.53227 19.7112 8.53227C18.9643 8.53227 18.3678 7.96827 18.3678 7.27266C18.3678 6.57706 18.9693 6.01306 19.7112 6.01306C20.453 6.01306 21.0545 6.57706 21.0545 7.27266ZM24.8691 8.55107C24.7839 6.86376 24.3729 5.36915 23.0545 4.13774C21.7412 2.90633 20.1472 2.52093 18.3477 2.43633C16.4931 2.33763 10.9341 2.33763 9.07945 2.43633C7.28495 2.51623 5.69094 2.90163 4.37263 4.13304C3.05432 5.36445 2.6483 6.85906 2.55807 8.54637C2.45281 10.2854 2.45281 15.4977 2.55807 17.2367C2.64329 18.924 3.05432 20.4187 4.37263 21.6501C5.69094 22.8815 7.27993 23.2669 9.07945 23.3515C10.9341 23.4502 16.4931 23.4502 18.3477 23.3515C20.1472 23.2716 21.7412 22.8862 23.0545 21.6501C24.3678 20.4187 24.7789 18.924 24.8691 17.2367C24.9744 15.4977 24.9744 10.2901 24.8691 8.55107ZM22.4731 19.1026C22.0821 20.0239 21.3252 20.7336 20.3377 21.1049C18.859 21.6548 15.3502 21.5279 13.7161 21.5279C12.082 21.5279 8.56817 21.6501 7.09447 21.1049C6.112 20.7383 5.3551 20.0286 4.9591 19.1026C4.37263 17.7161 4.50797 14.4261 4.50797 12.8939C4.50797 11.3617 4.37764 8.06697 4.9591 6.68516C5.35009 5.76395 6.10699 5.05425 7.09447 4.68295C8.57318 4.13304 12.082 4.25994 13.7161 4.25994C15.3502 4.25994 18.864 4.13774 20.3377 4.68295C21.3202 5.04955 22.0771 5.75925 22.4731 6.68516C23.0596 8.07167 22.9242 11.3617 22.9242 12.8939C22.9242 14.4261 23.0596 17.7208 22.4731 19.1026Z" fill="#FAFAFA"/>
</svg>
