<svg width="29" height="35" viewBox="0 0 29 35" fill="none" xmlns="http://www.w3.org/2000/svg">
<path d="M23.771 18.5623C23.8185 23.7029 28.281 25.4138 28.3302 25.4357C28.2925 25.556 27.6174 27.8737 25.9795 30.2671C24.5636 32.3365 23.0939 34.3982 20.7793 34.4414C18.5048 34.4829 17.7734 33.0922 15.1727 33.0922C12.5729 33.0922 11.7605 34.3982 9.60716 34.4829C7.37263 34.5677 5.67103 32.2449 4.24341 30.1834C1.32638 25.9659 -0.902954 18.2656 2.09037 13.0679C3.57732 10.4866 6.23513 8.85228 9.11963 8.81017C11.3137 8.76833 13.3847 10.2862 14.7259 10.2862C16.0663 10.2862 18.583 8.46071 21.2288 8.72868C22.3365 8.77489 25.4455 9.17603 27.4419 12.0985C27.2813 12.1983 23.7324 14.2644 23.771 18.5623ZM19.4963 5.9388C20.6825 4.50298 21.4809 2.5036 21.2633 0.514893C19.5532 0.583525 17.4854 1.65431 16.2591 3.08958C15.1599 4.36024 14.1974 6.39462 14.4569 8.34396C16.363 8.49161 18.3099 7.37544 19.4963 5.9388Z" fill="black"/>
</svg>
