<svg width="32" height="32" viewBox="0 0 32 32" fill="none" xmlns="http://www.w3.org/2000/svg">
<g clip-path="url(#clip0_295_2308)">
<path d="M25.9504 3.10874C26.9952 3.92794 27.7152 5.25114 28.0096 6.63674L28.1136 6.67834L31.3856 8.19194C31.5684 8.27608 31.7233 8.41069 31.8321 8.57991C31.941 8.74914 31.9992 8.94593 32 9.14714V28.9343C31.9988 29.0987 31.9596 29.2606 31.8854 29.4072C31.8111 29.5539 31.7039 29.6814 31.5722 29.7796C31.4404 29.8779 31.2877 29.9443 31.1259 29.9737C30.9642 30.003 30.7979 29.9945 30.64 29.9487L21.5696 27.3887L10.7856 30.3615C10.5911 30.4153 10.3853 30.4131 10.192 30.3551L0.7584 27.5471C0.540353 27.4831 0.348784 27.3504 0.212153 27.1688C0.0755216 26.9872 0.00111946 26.7664 0 26.5391L0 6.39674C0 5.69274 0.6848 5.18714 1.368 5.38554L10.4912 8.04314L15.128 6.62394C15.192 6.60474 15.2571 6.59141 15.3232 6.58394C15.5024 5.53434 16.0032 4.52634 16.8432 3.54394C17.84 2.37594 19.5888 1.69114 21.2928 1.60954C23.0608 1.52474 24.4112 1.90234 25.9488 3.10714M2.1328 7.80954V25.7535L9.9248 28.0719V10.0767L2.1328 7.80954ZM15.2672 8.79194L12.0576 9.77274V27.8191L20.1616 25.5887V20.3167C20.1616 19.7343 20.64 19.2623 21.2288 19.2623C21.8176 19.2623 22.2944 19.7343 22.2944 20.3183V25.4015L29.8672 27.5375V9.81754L28.0752 8.98554C28.0453 9.16154 28.0064 9.33381 27.9584 9.50234C27.6118 10.7297 27.028 11.8772 26.24 12.8799L22.2768 17.8287C22.1725 17.9589 22.0392 18.0628 21.8876 18.1324C21.736 18.202 21.5703 18.2352 21.4036 18.2294C21.2369 18.2237 21.0738 18.1791 20.9274 18.0993C20.7809 18.0194 20.6551 17.9065 20.56 17.7695L16.856 12.4047C16.2437 11.5525 15.8165 10.7866 15.5744 10.1071C15.4222 9.6819 15.3191 9.24062 15.2672 8.79194ZM21.3952 3.71834C20.2336 3.77434 19.04 4.24154 18.472 4.90554C17.7888 5.70554 17.4528 6.45434 17.3856 7.21274C17.3056 8.12634 17.36 8.77114 17.5872 9.40954C17.7552 9.88154 18.0896 10.4799 18.6064 11.2015L21.504 15.3967L24.56 11.5807C25.1769 10.7931 25.634 9.89249 25.9056 8.92954C26.2896 7.58554 25.7104 5.61114 24.6256 4.76314C23.5136 3.89114 22.6736 3.65594 21.3968 3.71834M21.6176 4.83354C23.384 4.83354 24.8176 6.24954 24.8176 7.99674C24.8121 8.84036 24.472 9.64731 23.872 10.2404C23.2721 10.8335 22.4612 11.1642 21.6176 11.1599C19.8512 11.1599 18.4176 9.74394 18.4176 7.99674C18.4176 6.24954 19.8512 4.83354 21.6176 4.83354ZM21.6176 6.94234C21.4783 6.9415 21.3402 6.9681 21.2112 7.02064C21.0821 7.07317 20.9647 7.1506 20.8656 7.24851C20.7665 7.34642 20.6877 7.46289 20.6336 7.59128C20.5795 7.71966 20.5512 7.85743 20.5504 7.99674C20.5504 8.57914 21.0288 9.05114 21.6176 9.05114C21.7569 9.05177 21.895 9.02496 22.0239 8.97223C22.1529 8.91951 22.2702 8.8419 22.3691 8.74384C22.4681 8.64578 22.5467 8.52919 22.6006 8.40073C22.6545 8.27227 22.6826 8.13445 22.6832 7.99514C22.6811 7.71436 22.5677 7.44586 22.368 7.24851C22.1682 7.05116 21.8984 6.94106 21.6176 6.94234Z" fill="#303030"/>
</g>
<defs>
<clipPath id="clip0_295_2308">
<rect width="32" height="32" fill="white"/>
</clipPath>
</defs>
</svg>
