<svg width="32" height="32" viewBox="0 0 32 32" fill="none" xmlns="http://www.w3.org/2000/svg">
<path d="M4 14.6668H12M17.3331 15.9999L18.7866 17.6664L21.3338 14.3333M5.33312 9.33301H12V22.6668H5.33312C5.158 22.6668 4.98459 22.6323 4.82281 22.5652C4.66103 22.4982 4.51404 22.3999 4.39024 22.2761C4.26644 22.1522 4.16825 22.0052 4.10129 21.8434C4.03434 21.6816 3.99992 21.5081 4 21.333V10.6668C4 10.3131 4.14043 9.97399 4.39042 9.72388C4.64041 9.47377 4.9795 9.33318 5.33312 9.33301Z" stroke="#303030" stroke-width="2" stroke-linecap="round" stroke-linejoin="round"/>
<path d="M28 26.6669V5.33312C28 4.97955 27.8595 4.64047 27.6095 4.39046C27.3595 4.14045 27.0204 4 26.6669 4H13.3331C12.9796 4 12.6405 4.14045 12.3905 4.39046C12.1405 4.64047 12 4.97955 12 5.33312V26.6669C12 27.0204 12.1405 27.3595 12.3905 27.6095C12.6405 27.8595 12.9796 28 13.3331 28H26.6669C27.0204 28 27.3595 27.8595 27.6095 27.6095C27.8595 27.3595 28 27.0204 28 26.6669ZM18 6.66688H22L22.6669 4H17.3331L18 6.66688Z" stroke="#303030" stroke-width="2" stroke-linecap="round" stroke-linejoin="round"/>
</svg>
