<svg width="38" height="32" viewBox="0 0 38 32" fill="none" xmlns="http://www.w3.org/2000/svg">
<path d="M18.7167 10L24.0001 15.2667V15C24.0001 13.6739 23.4733 12.4021 22.5356 11.4645C21.5979 10.5268 20.3262 10 19.0001 10H18.7167ZM11.5501 11.3333L14.1334 13.9167C14.0501 14.2667 14.0001 14.6167 14.0001 15C14.0001 16.3261 14.5269 17.5979 15.4645 18.5355C16.4022 19.4732 17.674 20 19.0001 20C19.3667 20 19.7334 19.95 20.0834 19.8667L22.6667 22.45C21.5501 23 20.3167 23.3333 19.0001 23.3333C16.7899 23.3333 14.6703 22.4554 13.1075 20.8926C11.5447 19.3298 10.6667 17.2101 10.6667 15C10.6667 13.6833 11.0001 12.45 11.5501 11.3333ZM2.33341 2.11667L6.13342 5.91667L6.88342 6.66667C4.13341 8.83333 1.96675 11.6667 0.666748 15C3.55008 22.3167 10.6667 27.5 19.0001 27.5C21.5834 27.5 24.0501 27 26.3001 26.1L27.0167 26.8L31.8834 31.6667L34.0001 29.55L4.45008 0M19.0001 6.66667C21.2102 6.66667 23.3298 7.54464 24.8926 9.10744C26.4554 10.6702 27.3334 12.7899 27.3334 15C27.3334 16.0667 27.1167 17.1 26.7334 18.0333L31.6167 22.9167C34.1167 20.8333 36.1167 18.1 37.3334 15C34.4501 7.68333 27.3334 2.5 19.0001 2.5C16.6667 2.5 14.4334 2.91667 12.3334 3.66667L15.9501 7.25C16.9001 6.88333 17.9167 6.66667 19.0001 6.66667Z" fill="#303030"/>
</svg>
