<svg width="38" height="26" viewBox="0 0 38 26" fill="none" xmlns="http://www.w3.org/2000/svg">
<path d="M19.0001 8C17.674 8 16.4022 8.52678 15.4645 9.46447C14.5269 10.4021 14.0001 11.6739 14.0001 13C14.0001 14.3261 14.5269 15.5979 15.4645 16.5355C16.4022 17.4732 17.674 18 19.0001 18C20.3262 18 21.5979 17.4732 22.5356 16.5355C23.4733 15.5979 24.0001 14.3261 24.0001 13C24.0001 11.6739 23.4733 10.4021 22.5356 9.46447C21.5979 8.52678 20.3262 8 19.0001 8ZM19.0001 21.3333C16.7899 21.3333 14.6703 20.4554 13.1075 18.8926C11.5447 17.3298 10.6667 15.2101 10.6667 13C10.6667 10.7899 11.5447 8.67025 13.1075 7.10744C14.6703 5.54464 16.7899 4.66667 19.0001 4.66667C21.2102 4.66667 23.3298 5.54464 24.8926 7.10744C26.4554 8.67025 27.3334 10.7899 27.3334 13C27.3334 15.2101 26.4554 17.3298 24.8926 18.8926C23.3298 20.4554 21.2102 21.3333 19.0001 21.3333ZM19.0001 0.5C10.6667 0.5 3.55008 5.68333 0.666748 13C3.55008 20.3167 10.6667 25.5 19.0001 25.5C27.3334 25.5 34.4501 20.3167 37.3334 13C34.4501 5.68333 27.3334 0.5 19.0001 0.5Z" fill="#303030"/>
</svg>
