<svg width="49" height="50" viewBox="0 0 49 50" fill="none" xmlns="http://www.w3.org/2000/svg">
<rect x="1" y="1" width="46.8088" height="47.9709" rx="23.4044" fill="#F87C01"/>
<rect x="1" y="1" width="46.8088" height="47.9709" rx="23.4044" stroke="#FAFAFA" stroke-width="2"/>
<path d="M17.7444 21.2316C17.8447 21.5333 17.8212 21.8625 17.679 22.1469C17.5368 22.4313 17.2876 22.6476 16.986 22.7484C16.6176 22.8649 16.2758 23.0532 15.9805 23.3024C15.6851 23.5516 15.442 23.8568 15.2652 24.2004C14.8188 25.038 14.5164 26.4156 14.7972 28.6644C14.8364 28.9804 14.7484 29.2991 14.5526 29.5502C14.3568 29.8014 14.0692 29.9645 13.7532 30.0036C13.4372 30.0428 13.1185 29.9548 12.8674 29.759C12.6163 29.5632 12.4532 29.2756 12.414 28.9596C12.0972 26.4084 12.3924 24.486 13.1484 23.0724C13.9164 21.6324 15.0852 20.8524 16.2252 20.4732C16.3748 20.4232 16.5327 20.4031 16.69 20.4141C16.8473 20.4252 17.0009 20.4671 17.142 20.5375C17.2831 20.608 17.4089 20.7055 17.5123 20.8246C17.6157 20.9437 17.6945 21.082 17.7444 21.2316ZM29.586 8.34841C29.7396 8.30187 29.8822 8.225 30.0056 8.12236C30.1289 8.01972 30.2304 7.89339 30.3041 7.75084C30.3777 7.60829 30.422 7.45241 30.4344 7.29243C30.4467 7.13245 30.4269 6.97162 30.376 6.81945C30.3251 6.66727 30.2442 6.52685 30.1381 6.40648C30.032 6.28612 29.9029 6.18825 29.7583 6.11868C29.6137 6.0491 29.4566 6.00923 29.2964 6.00142C29.1361 5.99361 28.9759 6.01802 28.8252 6.07321C26.5764 6.82201 25.1724 8.67001 24.3468 10.65C24.2354 10.9174 24.1338 11.1888 24.042 11.4636C23.5924 10.612 23.0171 9.83286 22.3356 9.15241C21.4123 8.2291 20.3103 7.50385 19.0971 7.02104C17.8839 6.53822 16.5849 6.30798 15.2796 6.34441C13.8876 6.38281 12.7764 7.49641 12.738 8.88601C12.7013 10.2086 12.9384 11.5245 13.4344 12.7512C13.9305 13.9778 14.6747 15.0887 15.6204 16.014C13.6041 16.45 11.7818 17.5239 10.4236 19.0767C9.06535 20.6294 8.24344 22.5784 8.07962 24.6348L8.06522 24.8124C7.74837 28.7657 8.59073 32.7256 10.4892 36.2076L11.3532 37.7868C11.3756 37.8284 11.4012 37.8684 11.43 37.9068L13.83 41.2716C14.374 42.0334 15.0773 42.6675 15.8912 43.1299C16.7051 43.5923 17.6099 43.8718 18.5428 43.949C19.4757 44.0262 20.4141 43.8992 21.293 43.577C22.1718 43.2547 22.9698 42.7448 23.6316 42.0828C23.7332 41.9811 23.8539 41.9005 23.9867 41.8455C24.1195 41.7904 24.2619 41.7621 24.4056 41.7621C24.5494 41.7621 24.6917 41.7904 24.8245 41.8455C24.9573 41.9005 25.078 41.9811 25.1796 42.0828C25.8414 42.7448 26.6395 43.2547 27.5183 43.577C28.3971 43.8992 29.3356 44.0262 30.2684 43.949C31.2013 43.8718 32.1061 43.5923 32.92 43.1299C33.7339 42.6675 34.4373 42.0334 34.9812 41.2716L37.3812 37.9092L37.458 37.7868L38.3196 36.2076C40.2181 32.7256 41.0605 28.7657 40.7436 24.8124L40.7316 24.6348C40.6254 23.3095 40.2451 22.0207 39.6147 20.8501C38.9843 19.6794 38.1176 18.6525 37.0695 17.8344C36.0215 17.0163 34.8149 16.4247 33.5263 16.0973C32.2377 15.7699 30.8951 15.7138 29.5836 15.9324L25.6068 16.5948C25.6308 14.9604 25.9188 13.122 26.5644 11.5716C27.2364 9.95161 28.2348 8.79961 29.5836 8.34841M21.33 16.2828L20.9604 16.2204C19.5518 15.9464 18.2573 15.2577 17.2428 14.2428C16.5505 13.5502 16.0068 12.7237 15.6449 11.8138C15.283 10.9039 15.1105 9.92967 15.138 8.95081C15.1398 8.896 15.1624 8.84393 15.2012 8.80516C15.2399 8.76638 15.292 8.74381 15.3468 8.74201C16.3259 8.71485 17.3001 8.88771 18.2101 9.25003C19.12 9.61235 19.9464 10.1565 20.6388 10.8492C22.0956 12.306 22.7988 14.2284 22.7436 16.1412C22.7418 16.196 22.7192 16.2481 22.6805 16.2869C22.6417 16.3256 22.5896 16.3482 22.5348 16.35C22.132 16.3614 21.729 16.3389 21.33 16.2828ZM20.5428 18.5844L20.958 18.654L22.8276 18.966C23.8724 19.1401 24.9388 19.1401 25.9836 18.966L29.9772 18.2988C30.961 18.1347 31.9681 18.1768 32.9347 18.4224C33.9013 18.668 34.8063 19.1117 35.5925 19.7255C36.3786 20.3392 37.0286 21.1095 37.5014 21.9877C37.9742 22.8659 38.2593 23.8327 38.3388 24.8268L38.3532 25.0044C38.6325 28.4933 37.8885 31.9878 36.2124 35.0604L35.3868 36.5724L33.0276 39.8748C32.6864 40.353 32.2451 40.7512 31.7345 41.0416C31.2238 41.3319 30.656 41.5076 30.0705 41.5562C29.4851 41.6049 28.896 41.5254 28.3444 41.3233C27.7928 41.1212 27.2919 40.8014 26.8764 40.386C26.5519 40.0612 26.1665 39.8035 25.7424 39.6277C25.3182 39.4519 24.8636 39.3614 24.4044 39.3614C23.9453 39.3614 23.4906 39.4519 23.0665 39.6277C22.6423 39.8035 22.2569 40.0612 21.9324 40.386C21.517 40.8009 21.0162 41.1204 20.4648 41.3223C19.9134 41.5241 19.3247 41.6034 18.7396 41.5548C18.1545 41.5061 17.5869 41.3307 17.0765 41.0406C16.566 40.7504 16.1248 40.3526 15.7836 39.8748L13.4244 36.5724L12.5988 35.0604C10.9227 31.9878 10.1788 28.4933 10.458 25.0044L10.4724 24.8268C10.5519 23.8329 10.8371 22.8663 11.3097 21.9884C11.7823 21.1104 12.4321 20.3402 13.2179 19.7265C14.0038 19.1128 14.9086 18.669 15.8749 18.4232C16.8412 18.1775 17.8481 18.1351 18.8316 18.2988L20.5428 18.5844Z" fill="#FAFAFA"/>
</svg>
