<svg width="32" height="32" viewBox="0 0 32 32" fill="none" xmlns="http://www.w3.org/2000/svg">
<path d="M20.1305 16.8452L17.3332 15.2305V9.33317C17.3332 8.97955 17.1927 8.64041 16.9427 8.39036C16.6926 8.14031 16.3535 7.99984 15.9998 7.99984C15.6462 7.99984 15.3071 8.14031 15.057 8.39036C14.807 8.64041 14.6665 8.97955 14.6665 9.33317V15.9998C14.6665 16.2339 14.7281 16.4638 14.8452 16.6665C14.9622 16.8692 15.1305 17.0375 15.3332 17.1545L18.7972 19.1545C18.9489 19.2434 19.1167 19.3015 19.2909 19.3253C19.4651 19.3491 19.6423 19.3382 19.8123 19.2933C19.9823 19.2484 20.1417 19.1702 20.2814 19.0634C20.4211 18.9566 20.5383 18.8232 20.6262 18.6709C20.7141 18.5187 20.771 18.3505 20.7937 18.1761C20.8164 18.0017 20.8043 17.8246 20.7583 17.6549C20.7122 17.4852 20.633 17.3263 20.5253 17.1873C20.4175 17.0484 20.2834 16.9321 20.1305 16.8452ZM15.9998 2.6665C13.3628 2.6665 10.7849 3.44849 8.59224 4.91358C6.39958 6.37866 4.69062 8.46104 3.68145 10.8974C2.67228 13.3337 2.40824 16.0146 2.92271 18.601C3.43718 21.1875 4.70705 23.5632 6.57175 25.4279C8.43645 27.2926 10.8122 28.5625 13.3986 29.077C15.9851 29.5914 18.6659 29.3274 21.1023 28.3182C23.5386 27.3091 25.621 25.6001 27.0861 23.4074C28.5512 21.2148 29.3332 18.6369 29.3332 15.9998C29.3296 12.4647 27.9238 9.07537 25.424 6.57565C22.9243 4.07593 19.535 2.67003 15.9998 2.6665ZM15.9998 26.6665C13.8902 26.6665 11.8279 26.0409 10.0738 24.8688C8.31964 23.6968 6.95246 22.0309 6.14513 20.0818C5.33779 18.1327 5.12656 15.988 5.53813 13.9189C5.94971 11.8497 6.96561 9.94912 8.45737 8.45736C9.94913 6.9656 11.8497 5.9497 13.9189 5.53813C15.988 5.12655 18.1327 5.33779 20.0818 6.14512C22.0309 6.95246 23.6968 8.31963 24.8689 10.0738C26.0409 11.8279 26.6665 13.8902 26.6665 15.9998C26.663 18.8277 25.538 21.5388 23.5384 23.5384C21.5388 25.538 18.8277 26.663 15.9998 26.6665Z" fill="#303030"/>
</svg>
