<svg width="32" height="32" viewBox="0 0 32 32" fill="none" xmlns="http://www.w3.org/2000/svg">
<path d="M1.5 10V10.5H2H30H30.5V10V6.5C30.5 6.23612 30.4103 5.98441 30.2129 5.78707C30.0156 5.58974 29.7639 5.5 29.5 5.5H2.5C2.23612 5.5 1.98441 5.58974 1.78707 5.78707C1.58974 5.98441 1.5 6.23612 1.5 6.5V10ZM30.5 12V11.5H30H2H1.5V12V23.5C1.5 23.7639 1.58974 24.0156 1.78707 24.2129C1.98441 24.4103 2.23612 24.5 2.5 24.5H29.5C29.7639 24.5 30.0156 24.4103 30.2129 24.2129C30.4103 24.0156 30.5 23.7639 30.5 23.5V12ZM29.5 4.5C29.7816 4.5 30.0392 4.55087 30.2776 4.64951C30.5145 4.74757 30.7225 4.88987 30.9043 5.07999C31.094 5.27827 31.2369 5.49402 31.3373 5.72821C31.4341 5.95405 31.4905 6.2119 31.5 6.50768V23.5C31.5 23.7816 31.4491 24.0392 31.3505 24.2776C31.2524 24.5145 31.1101 24.7225 30.92 24.9043C30.7217 25.094 30.506 25.2369 30.2718 25.3373C30.0459 25.4341 29.7881 25.4905 29.4923 25.5H2.5C2.21842 25.5 1.9608 25.4491 1.72243 25.3505C1.48545 25.2524 1.27755 25.1101 1.0957 24.92C0.906038 24.7217 0.763064 24.506 0.662697 24.2718C0.56591 24.046 0.509462 23.7881 0.5 23.4923V6.5C0.5 6.21842 0.55087 5.9608 0.649508 5.72243C0.747566 5.48545 0.88987 5.27755 1.07999 5.0957C1.27826 4.90604 1.49402 4.76306 1.72821 4.6627C1.95405 4.56591 2.21189 4.50946 2.50766 4.5H29.5ZM22.5 18.5H25.5V19.5H22.5V18.5Z" fill="#303030" stroke="#303030"/>
</svg>
