<svg width="26" height="25" viewBox="0 0 26 25" fill="none" xmlns="http://www.w3.org/2000/svg">
<g clip-path="url(#clip0_441_1611)">
<path d="M23.1013 7.99681C23.1176 8.21057 23.1176 8.42437 23.1176 8.63813C23.1176 15.158 17.8251 22.6705 8.15209 22.6705C5.172 22.6705 2.40365 21.8612 0.0749512 20.4565C0.498364 20.5022 0.905437 20.5175 1.34514 20.5175C3.80407 20.5175 6.06765 19.7388 7.87524 18.4104C5.56283 18.3646 3.62497 16.9445 2.95729 14.9901C3.28301 15.0359 3.60868 15.0664 3.95068 15.0664C4.42292 15.0664 4.89521 15.0053 5.33486 14.8985C2.92476 14.4404 1.11712 12.4554 1.11712 10.0581V9.9971C1.81733 10.3636 2.63162 10.5926 3.49464 10.6231C2.07788 9.73747 1.1497 8.22584 1.1497 6.51569C1.1497 5.59956 1.4102 4.75976 1.8662 4.02683C4.45545 7.01958 8.34748 8.97399 12.7117 9.1878C12.6303 8.82134 12.5814 8.43965 12.5814 8.05791C12.5814 5.33997 14.9264 3.12598 17.8413 3.12598C19.3558 3.12598 20.7237 3.72147 21.6845 4.68343C22.8732 4.46967 24.0131 4.05738 25.0228 3.49244C24.6319 4.63765 23.8014 5.5996 22.7104 6.21033C23.7689 6.10349 24.7948 5.82859 25.7393 5.4469C25.0229 6.42408 24.1272 7.29439 23.1013 7.99681Z" fill="#FAFAFA"/>
</g>
<defs>
<clipPath id="clip0_441_1611">
<rect width="25.6645" height="24.0642" fill="white" transform="translate(0.0749512 0.866211)"/>
</clipPath>
</defs>
</svg>
