<svg width="26" height="25" viewBox="0 0 26 25" fill="none" xmlns="http://www.w3.org/2000/svg">
<g clip-path="url(#clip0_441_1613)">
<path d="M24.7617 7.3871C24.4818 6.39905 23.6572 5.6209 22.6103 5.35682C20.7126 4.87695 13.1033 4.87695 13.1033 4.87695C13.1033 4.87695 5.49394 4.87695 3.59624 5.35682C2.5493 5.62094 1.72474 6.39905 1.44488 7.3871C0.936401 9.17801 0.936401 12.9146 0.936401 12.9146C0.936401 12.9146 0.936401 16.6511 1.44488 18.442C1.72474 19.4301 2.5493 20.1758 3.59624 20.4399C5.49394 20.9197 13.1033 20.9197 13.1033 20.9197C13.1033 20.9197 20.7126 20.9197 22.6103 20.4399C23.6572 20.1758 24.4818 19.4301 24.7617 18.442C25.2701 16.6511 25.2701 12.9146 25.2701 12.9146C25.2701 12.9146 25.2701 9.17801 24.7617 7.3871ZM10.6146 16.3071V9.52205L16.9745 12.9146L10.6146 16.3071Z" fill="#FAFAFA"/>
</g>
<defs>
<clipPath id="clip0_441_1613">
<rect width="25.6645" height="24.0642" fill="white" transform="translate(0.270996 0.866211)"/>
</clipPath>
</defs>
</svg>
