<svg width="32" height="32" viewBox="0 0 32 32" fill="none" xmlns="http://www.w3.org/2000/svg">
<path d="M16.0002 26.2859V30.8574M21.7145 24.0002V28.5716M10.2859 24.0002V28.5716M28.5716 1.14307H3.42878C2.82257 1.14307 2.24119 1.38388 1.81254 1.81254C1.38388 2.24119 1.14307 2.82257 1.14307 3.42878V17.1431C1.14307 17.7493 1.38388 18.3307 1.81254 18.7593C2.24119 19.188 2.82257 19.4288 3.42878 19.4288H28.5716C29.1778 19.4288 29.7592 19.188 30.1879 18.7593C30.6165 18.3307 30.8574 17.7493 30.8574 17.1431V10.2859V3.42878C30.8574 2.82257 30.6165 2.24119 30.1879 1.81254C29.7592 1.38388 29.1778 1.14307 28.5716 1.14307Z" stroke="#303030" stroke-width="2" stroke-linecap="round" stroke-linejoin="round"/>
<path d="M16.0001 14.2861C16.5253 14.2861 17.0455 14.1827 17.5308 13.9817C18.0161 13.7806 18.457 13.486 18.8285 13.1146C19.1999 12.7431 19.4946 12.3022 19.6956 11.8169C19.8966 11.3316 20.0001 10.8114 20.0001 10.2861C20.0001 9.76085 19.8966 9.2407 19.6956 8.7554C19.4946 8.2701 19.1999 7.82914 18.8285 7.45771C18.457 7.08627 18.0161 6.79163 17.5308 6.59061C17.0455 6.3896 16.5253 6.28613 16.0001 6.28613C14.9392 6.28613 13.9218 6.70756 13.1716 7.45771C12.4215 8.20785 12.0001 9.22527 12.0001 10.2861C12.0001 11.347 12.4215 12.3644 13.1716 13.1146C13.9218 13.8647 14.9392 14.2861 16.0001 14.2861ZM6.34291 10.8576C6.19136 10.8576 6.04602 10.7974 5.93885 10.6902C5.83169 10.583 5.77148 10.4377 5.77148 10.2861C5.77148 10.1346 5.83169 9.98924 5.93885 9.88207C6.04602 9.77491 6.19136 9.7147 6.34291 9.7147M6.34291 10.8576C6.49447 10.8576 6.63981 10.7974 6.74697 10.6902C6.85414 10.583 6.91434 10.4377 6.91434 10.2861C6.91434 10.1346 6.85414 9.98924 6.74697 9.88207C6.63981 9.77491 6.49447 9.7147 6.34291 9.7147M25.6572 10.8576C25.5056 10.8576 25.3603 10.7974 25.2531 10.6902C25.146 10.583 25.0858 10.4377 25.0858 10.2861C25.0858 10.1346 25.146 9.98924 25.2531 9.88207C25.3603 9.77491 25.5056 9.7147 25.6572 9.7147M25.6572 10.8576C25.8088 10.8576 25.9541 10.7974 26.0613 10.6902C26.1684 10.583 26.2286 10.4377 26.2286 10.2861C26.2286 10.1346 26.1684 9.98924 26.0613 9.88207C25.9541 9.77491 25.8088 9.7147 25.6572 9.7147" stroke="#303030" stroke-linecap="round" stroke-linejoin="round"/>
</svg>
