<svg width="26" height="26" viewBox="0 0 26 26" fill="none" xmlns="http://www.w3.org/2000/svg">
<path d="M7.66683 1C8.3335 1 11.0002 7 11.0002 7.66667C11.0002 9 9.00016 10.3333 8.3335 11.6667C7.66683 13 9.00016 14.3333 10.3335 15.6667C10.8535 16.1867 13.0002 18.3333 14.3335 17.6667C15.6668 17 17.0002 15 18.3335 15C19.0002 15 25.0002 17.6667 25.0002 18.3333C25.0002 21 23.0002 23 21.0002 23.6667C19.0002 24.3333 17.6668 24.3333 15.0002 23.6667C12.3335 23 10.3335 22.3333 7.00016 19C3.66683 15.6667 3.00016 13.6667 2.3335 11C1.66683 8.33333 1.66683 7 2.3335 5C3.00016 3 5.00016 1 7.66683 1Z" stroke="#303030" stroke-width="2" stroke-linecap="round" stroke-linejoin="round"/>
</svg>
