<svg width="82" height="82" viewBox="0 0 82 82" fill="none" xmlns="http://www.w3.org/2000/svg">
<rect width="82" height="82" rx="41" fill="#303030"/>
<path fill-rule="evenodd" clip-rule="evenodd" d="M32.2505 25.0353V22.667C32.2505 20.3463 33.1723 18.1208 34.8133 16.4798C36.4542 14.8389 38.6798 13.917 41.0005 13.917C43.3211 13.917 45.5467 14.8389 47.1876 16.4798C48.8286 18.1208 49.7505 20.3463 49.7505 22.667V25.0353C52.7535 25.1263 54.5921 25.4483 55.9945 26.6127C57.9381 28.2273 58.4515 30.9573 59.4758 36.4197L61.2258 45.753C62.6655 53.4343 63.3841 57.275 61.2865 59.8043C59.1865 62.3337 55.2781 62.3337 47.4638 62.3337H34.5371C26.7205 62.3337 22.8145 62.3337 20.7145 59.8043C18.6145 57.275 19.3378 53.4343 20.7751 45.753L22.5251 36.4197C23.5518 30.9597 24.0628 28.2273 26.0065 26.6127C27.4088 25.4483 29.2475 25.1263 32.2505 25.0353ZM35.7505 22.667C35.7505 21.2746 36.3036 19.9392 37.2881 18.9547C38.2727 17.9701 39.6081 17.417 41.0005 17.417C42.3928 17.417 43.7282 17.9701 44.7128 18.9547C45.6973 19.9392 46.2505 21.2746 46.2505 22.667V25.0003H35.7505V22.667ZM49.0948 36.4663C49.2745 36.6099 49.4241 36.7876 49.5351 36.989C49.6461 37.1905 49.7163 37.4119 49.7417 37.6406C49.767 37.8692 49.7471 38.1006 49.6829 38.3215C49.6187 38.5424 49.5117 38.7485 49.3678 38.928L40.0345 50.5947C39.8806 50.7867 39.6879 50.9442 39.469 51.0567C39.2502 51.1693 39.01 51.2344 38.7643 51.2478C38.5185 51.2612 38.2727 51.2227 38.0429 51.1347C37.813 51.0467 37.6044 50.9111 37.4305 50.737L32.7638 46.0703C32.4547 45.7386 32.2864 45.2998 32.2944 44.8464C32.3024 44.3931 32.486 43.9605 32.8067 43.6399C33.1273 43.3192 33.5599 43.1356 34.0132 43.1276C34.4666 43.1196 34.9054 43.2879 35.2371 43.597L38.5225 46.88L46.6331 36.7393C46.7767 36.5596 46.9544 36.41 47.1558 36.299C47.3573 36.188 47.5787 36.1178 47.8074 36.0924C48.036 36.0671 48.2674 36.0871 48.4883 36.1512C48.7092 36.2154 48.9153 36.3224 49.0948 36.4663Z" fill="#6CC63F"/>
</svg>
