<svg width="83" height="82" viewBox="0 0 83 82" fill="none" xmlns="http://www.w3.org/2000/svg">
<rect x="0.5" width="82" height="82" rx="41" fill="#76B939"/>
<path d="M34.6615 21.6664C35.1608 20.2514 36.0867 19.026 37.3116 18.1593C38.5365 17.2926 40.0001 16.8271 41.5006 16.8271C43.0012 16.8271 44.4648 17.2926 45.6897 18.1593C46.9146 19.026 47.8405 20.2514 48.3398 21.6664M62.0423 26.4997H20.959M58.0137 32.5414L56.9021 49.2164C56.4743 55.6302 56.2616 58.8372 54.1712 60.7922C52.0808 62.7473 48.8642 62.7497 42.4359 62.7497H40.5654C34.1371 62.7497 30.9205 62.7497 28.8301 60.7922C26.7397 58.8372 26.5246 55.6302 26.0992 49.2164L24.9876 32.5414M35.459 38.5831L36.6673 50.6664M47.5423 38.5831L46.334 50.6664" stroke="#FAFAFA" stroke-width="3" stroke-linecap="round"/>
</svg>
