<svg width="82" height="82" viewBox="0 0 82 82" fill="none" xmlns="http://www.w3.org/2000/svg">
<rect width="82" height="82" rx="41" fill="#76B939"/>
<path d="M54.2858 42.2863C53.5403 48.4944 49.4742 50.9751 47.7181 52.7758C45.9593 54.5818 46.2743 54.9414 46.3924 57.5901C46.4122 57.9178 46.3646 58.246 46.2526 58.5546C46.1406 58.8632 45.9666 59.1456 45.7413 59.3844C45.5161 59.6232 45.2443 59.8134 44.9427 59.9431C44.6412 60.0729 44.3162 60.1395 43.9879 60.139H37.0107C36.6826 60.1384 36.3581 60.071 36.057 59.9409C35.7558 59.8107 35.4843 59.6206 35.2591 59.3821C35.0338 59.1436 34.8595 58.8617 34.7468 58.5536C34.6341 58.2455 34.5854 57.9176 34.6036 57.5901C34.6036 54.9913 34.8451 54.3876 33.2806 52.7758C31.2856 50.7808 26.5921 47.9642 26.5921 40.2178C26.5801 38.2937 26.9668 36.3879 27.7279 34.6207C28.489 32.8535 29.608 31.2631 31.0143 29.9497C32.4205 28.6364 34.0836 27.6287 35.8987 26.99C37.7138 26.3513 39.6415 26.0956 41.5603 26.2389C43.4791 26.3822 45.3475 26.9215 47.0475 27.8227C48.7476 28.7239 50.2425 29.9676 51.4381 31.4752C52.6336 32.9829 53.5039 34.7219 53.994 36.5826C54.4842 38.4433 54.5835 40.3853 54.2858 42.2863Z" stroke="#FAFAFA" stroke-width="3" stroke-linecap="round" stroke-linejoin="round"/>
<path d="M36.457 59.9941V63.9631C36.457 65.0473 37.0608 65.9371 37.8037 65.9371H43.1928C43.9409 65.9371 44.542 65.0446 44.542 63.9631V59.9941M38.452 32.3266C36.9021 32.3273 35.4158 32.9435 34.3201 34.0398C33.2243 35.136 32.6088 36.6225 32.6088 38.1725M59.746 40.7476H64.5603M54.9003 24.9661L58.3154 21.551M57.5253 54.1246L60.9404 57.5371M40.4995 15.7393V19.6321M22.7545 21.5484L26.146 24.9661M20.1295 57.5371L23.521 54.1246M21.253 40.7476H16.4414" stroke="#FAFAFA" stroke-width="3" stroke-linecap="round" stroke-linejoin="round"/>
</svg>
