<svg width="36" height="36" viewBox="0 0 36 36" fill="none" xmlns="http://www.w3.org/2000/svg">
<path d="M25.5 22.5H23.92L23.36 21.96C25.3879 19.6081 26.5024 16.6054 26.5 13.5C26.5 10.9288 25.7376 8.41543 24.3091 6.27759C22.8807 4.13975 20.8503 2.47351 18.4749 1.48957C16.0995 0.505633 13.4856 0.248189 10.9638 0.749797C8.44208 1.25141 6.1257 2.48953 4.30762 4.30762C2.48953 6.1257 1.25141 8.44208 0.749797 10.9638C0.248189 13.4856 0.505633 16.0995 1.48957 18.4749C2.47351 20.8503 4.13975 22.8807 6.27759 24.3091C8.41543 25.7376 10.9288 26.5 13.5 26.5C16.72 26.5 19.68 25.32 21.96 23.36L22.5 23.92V25.5L32.5 35.48L35.48 32.5L25.5 22.5ZM13.5 22.5C8.52001 22.5 4.50001 18.48 4.50001 13.5C4.50001 8.52001 8.52001 4.50001 13.5 4.50001C18.48 4.50001 22.5 8.52001 22.5 13.5C22.5 18.48 18.48 22.5 13.5 22.5Z" fill="#303030"/>
</svg>
