<svg width="262" height="237" viewBox="0 0 262 237" fill="none" xmlns="http://www.w3.org/2000/svg">
<path d="M107.167 118.239H188.734C191.457 118.239 193.834 116.002 193.834 112.996C193.834 109.99 191.457 107.754 188.734 107.754H108.353C104.369 107.754 101.924 104.957 101.295 100.695L100.176 93.3561H188.871C199.076 93.3561 204.319 87.0637 205.786 77.0706L211.378 40.095C211.527 39.2172 211.621 38.3307 211.658 37.4409C211.658 34.086 209.141 31.7778 205.297 31.7778H91.1614L89.8313 22.9029C89.1335 17.5202 87.1772 14.7915 80.0499 14.7915H55.5128C52.7186 14.7915 50.3418 17.2428 50.3418 20.0401C50.3418 22.9029 52.7186 25.3513 55.5158 25.3513H79.1374L90.3204 102.094C91.7906 112.018 97.0302 118.239 107.167 118.239ZM199.774 42.3316L194.818 75.8121C194.257 80.1452 191.952 82.8023 187.828 82.8023L98.6436 82.8708L92.7002 42.3316H199.774ZM112.689 152.209C114.18 152.221 115.658 151.936 117.037 151.372C118.417 150.807 119.67 149.974 120.724 148.92C121.778 147.866 122.611 146.613 123.176 145.233C123.741 143.854 124.025 142.376 124.013 140.885C124.019 139.397 123.731 137.921 123.164 136.544C122.598 135.168 121.764 133.917 120.711 132.864C119.658 131.811 118.407 130.977 117.031 130.411C115.654 129.844 114.178 129.556 112.689 129.562C106.332 129.562 101.298 134.596 101.298 140.885C101.298 147.246 106.332 152.209 112.689 152.209ZM178.04 152.209C184.401 152.209 189.432 147.246 189.432 140.885C189.432 134.593 184.401 129.562 178.04 129.562C171.751 129.562 166.648 134.596 166.648 140.885C166.648 147.246 171.751 152.209 178.04 152.209Z" fill="#76B939"/>
<path d="M15.8248 212V197.288H10.0648V195.2H23.9608V197.288H18.2008V212H15.8248ZM31.286 212.144C30.198 212.144 29.238 211.944 28.406 211.544C27.59 211.144 26.95 210.536 26.486 209.72C26.038 208.888 25.814 207.848 25.814 206.6V199.28H28.118V206.336C28.118 207.584 28.414 208.52 29.006 209.144C29.614 209.768 30.462 210.08 31.55 210.08C32.35 210.08 33.046 209.92 33.638 209.6C34.23 209.264 34.686 208.784 35.006 208.16C35.326 207.52 35.486 206.752 35.486 205.856V199.28H37.79V212H35.606V208.568L35.966 209.48C35.55 210.328 34.926 210.984 34.094 211.448C33.262 211.912 32.326 212.144 31.286 212.144ZM54.1655 212.144C52.8695 212.144 51.7095 211.864 50.6855 211.304C49.6775 210.744 48.8855 209.976 48.3095 209C47.7335 208.024 47.4455 206.904 47.4455 205.64C47.4455 204.376 47.7335 203.256 48.3095 202.28C48.8855 201.304 49.6775 200.544 50.6855 200C51.7095 199.44 52.8695 199.16 54.1655 199.16C55.3175 199.16 56.3415 199.392 57.2375 199.856C58.1495 200.304 58.8535 200.976 59.3495 201.872L57.5975 203C57.1815 202.376 56.6695 201.92 56.0615 201.632C55.4695 201.328 54.8295 201.176 54.1415 201.176C53.3095 201.176 52.5655 201.36 51.9095 201.728C51.2535 202.096 50.7335 202.616 50.3495 203.288C49.9655 203.944 49.7735 204.728 49.7735 205.64C49.7735 206.552 49.9655 207.344 50.3495 208.016C50.7335 208.688 51.2535 209.208 51.9095 209.576C52.5655 209.944 53.3095 210.128 54.1415 210.128C54.8295 210.128 55.4695 209.984 56.0615 209.696C56.6695 209.392 57.1815 208.928 57.5975 208.304L59.3495 209.408C58.8535 210.288 58.1495 210.968 57.2375 211.448C56.3415 211.912 55.3175 212.144 54.1655 212.144ZM70.2284 212V209.312L70.1084 208.808V204.224C70.1084 203.248 69.8204 202.496 69.2444 201.968C68.6844 201.424 67.8364 201.152 66.7004 201.152C65.9484 201.152 65.2124 201.28 64.4924 201.536C63.7724 201.776 63.1644 202.104 62.6684 202.52L61.7084 200.792C62.3644 200.264 63.1484 199.864 64.0604 199.592C64.9884 199.304 65.9564 199.16 66.9644 199.16C68.7084 199.16 70.0524 199.584 70.9964 200.432C71.9404 201.28 72.4124 202.576 72.4124 204.32V212H70.2284ZM66.0524 212.144C65.1084 212.144 64.2764 211.984 63.5564 211.664C62.8524 211.344 62.3084 210.904 61.9244 210.344C61.5404 209.768 61.3484 209.12 61.3484 208.4C61.3484 207.712 61.5084 207.088 61.8284 206.528C62.1644 205.968 62.7004 205.52 63.4364 205.184C64.1884 204.848 65.1964 204.68 66.4604 204.68H70.4924V206.336H66.5564C65.4044 206.336 64.6284 206.528 64.2284 206.912C63.8284 207.296 63.6284 207.76 63.6284 208.304C63.6284 208.928 63.8764 209.432 64.3724 209.816C64.8684 210.184 65.5564 210.368 66.4364 210.368C67.3004 210.368 68.0524 210.176 68.6924 209.792C69.3484 209.408 69.8204 208.848 70.1084 208.112L70.5644 209.696C70.2604 210.448 69.7244 211.048 68.9564 211.496C68.1884 211.928 67.2204 212.144 66.0524 212.144ZM76.6762 212V199.28H78.8842V202.736L78.6682 201.872C79.0202 200.992 79.6122 200.32 80.4442 199.856C81.2762 199.392 82.3002 199.16 83.5162 199.16V201.392C83.4202 201.376 83.3242 201.368 83.2282 201.368C83.1482 201.368 83.0682 201.368 82.9882 201.368C81.7562 201.368 80.7802 201.736 80.0602 202.472C79.3402 203.208 78.9802 204.272 78.9802 205.664V212H76.6762ZM86.3559 212V199.28H88.5639V202.736L88.3479 201.872C88.6999 200.992 89.2919 200.32 90.1239 199.856C90.9559 199.392 91.9799 199.16 93.1959 199.16V201.392C93.0999 201.376 93.0039 201.368 92.9079 201.368C92.8279 201.368 92.7479 201.368 92.6679 201.368C91.4359 201.368 90.4599 201.736 89.7399 202.472C89.0199 203.208 88.6599 204.272 88.6599 205.664V212H86.3559ZM96.0356 212V199.28H98.3396V212H96.0356ZM97.1876 196.832C96.7396 196.832 96.3636 196.688 96.0596 196.4C95.7716 196.112 95.6276 195.76 95.6276 195.344C95.6276 194.912 95.7716 194.552 96.0596 194.264C96.3636 193.976 96.7396 193.832 97.1876 193.832C97.6356 193.832 98.0036 193.976 98.2916 194.264C98.5956 194.536 98.7476 194.88 98.7476 195.296C98.7476 195.728 98.6036 196.096 98.3156 196.4C98.0276 196.688 97.6516 196.832 97.1876 196.832ZM107.107 212.144C105.827 212.144 104.835 211.8 104.131 211.112C103.427 210.424 103.075 209.44 103.075 208.16V196.496H105.379V208.064C105.379 208.752 105.547 209.28 105.883 209.648C106.235 210.016 106.731 210.2 107.371 210.2C108.091 210.2 108.691 210 109.171 209.6L109.891 211.256C109.539 211.56 109.115 211.784 108.619 211.928C108.139 212.072 107.635 212.144 107.107 212.144ZM100.915 201.176V199.28H109.027V201.176H100.915ZM117.702 212.144C116.422 212.144 115.286 211.864 114.294 211.304C113.302 210.744 112.518 209.976 111.942 209C111.366 208.008 111.078 206.888 111.078 205.64C111.078 204.376 111.366 203.256 111.942 202.28C112.518 201.304 113.302 200.544 114.294 200C115.286 199.44 116.422 199.16 117.702 199.16C118.966 199.16 120.094 199.44 121.086 200C122.094 200.544 122.878 201.304 123.438 202.28C124.014 203.24 124.302 204.36 124.302 205.64C124.302 206.904 124.014 208.024 123.438 209C122.878 209.976 122.094 210.744 121.086 211.304C120.094 211.864 118.966 212.144 117.702 212.144ZM117.702 210.128C118.518 210.128 119.246 209.944 119.886 209.576C120.542 209.208 121.054 208.688 121.422 208.016C121.79 207.328 121.974 206.536 121.974 205.64C121.974 204.728 121.79 203.944 121.422 203.288C121.054 202.616 120.542 202.096 119.886 201.728C119.246 201.36 118.518 201.176 117.702 201.176C116.886 201.176 116.158 201.36 115.518 201.728C114.878 202.096 114.366 202.616 113.982 203.288C113.598 203.944 113.406 204.728 113.406 205.64C113.406 206.536 113.598 207.328 113.982 208.016C114.366 208.688 114.878 209.208 115.518 209.576C116.158 209.944 116.886 210.128 117.702 210.128ZM139.598 212.144C138.238 212.144 137.038 211.864 135.998 211.304C134.974 210.744 134.174 209.976 133.598 209C133.038 208.024 132.758 206.904 132.758 205.64C132.758 204.376 133.03 203.256 133.574 202.28C134.134 201.304 134.894 200.544 135.854 200C136.83 199.44 137.926 199.16 139.142 199.16C140.374 199.16 141.462 199.432 142.406 199.976C143.35 200.52 144.086 201.288 144.614 202.28C145.158 203.256 145.43 204.4 145.43 205.712C145.43 205.808 145.422 205.92 145.406 206.048C145.406 206.176 145.398 206.296 145.382 206.408H134.558V204.752H144.182L143.246 205.328C143.262 204.512 143.094 203.784 142.742 203.144C142.39 202.504 141.902 202.008 141.278 201.656C140.67 201.288 139.958 201.104 139.142 201.104C138.342 201.104 137.63 201.288 137.006 201.656C136.382 202.008 135.894 202.512 135.542 203.168C135.19 203.808 135.014 204.544 135.014 205.376V205.76C135.014 206.608 135.206 207.368 135.59 208.04C135.99 208.696 136.542 209.208 137.246 209.576C137.95 209.944 138.758 210.128 139.67 210.128C140.422 210.128 141.102 210 141.71 209.744C142.334 209.488 142.878 209.104 143.342 208.592L144.614 210.08C144.038 210.752 143.318 211.264 142.454 211.616C141.606 211.968 140.654 212.144 139.598 212.144ZM152.277 212.144C151.221 212.144 150.213 212 149.253 211.712C148.309 211.424 147.565 211.072 147.021 210.656L147.981 208.832C148.525 209.2 149.197 209.512 149.997 209.768C150.797 210.024 151.613 210.152 152.445 210.152C153.517 210.152 154.285 210 154.749 209.696C155.229 209.392 155.469 208.968 155.469 208.424C155.469 208.024 155.325 207.712 155.037 207.488C154.749 207.264 154.365 207.096 153.885 206.984C153.421 206.872 152.901 206.776 152.325 206.696C151.749 206.6 151.173 206.488 150.597 206.36C150.021 206.216 149.493 206.024 149.013 205.784C148.533 205.528 148.149 205.184 147.861 204.752C147.573 204.304 147.429 203.712 147.429 202.976C147.429 202.208 147.645 201.536 148.077 200.96C148.509 200.384 149.117 199.944 149.901 199.64C150.701 199.32 151.645 199.16 152.733 199.16C153.565 199.16 154.405 199.264 155.253 199.472C156.117 199.664 156.821 199.944 157.365 200.312L156.381 202.136C155.805 201.752 155.205 201.488 154.581 201.344C153.957 201.2 153.333 201.128 152.709 201.128C151.701 201.128 150.949 201.296 150.453 201.632C149.957 201.952 149.709 202.368 149.709 202.88C149.709 203.312 149.853 203.648 150.141 203.888C150.445 204.112 150.829 204.288 151.293 204.416C151.773 204.544 152.301 204.656 152.877 204.752C153.453 204.832 154.029 204.944 154.605 205.088C155.181 205.216 155.701 205.4 156.165 205.64C156.645 205.88 157.029 206.216 157.317 206.648C157.621 207.08 157.773 207.656 157.773 208.376C157.773 209.144 157.549 209.808 157.101 210.368C156.653 210.928 156.021 211.368 155.205 211.688C154.389 211.992 153.413 212.144 152.277 212.144ZM165.021 212.144C163.741 212.144 162.749 211.8 162.045 211.112C161.341 210.424 160.989 209.44 160.989 208.16V196.496H163.293V208.064C163.293 208.752 163.461 209.28 163.797 209.648C164.149 210.016 164.645 210.2 165.285 210.2C166.005 210.2 166.605 210 167.085 209.6L167.805 211.256C167.453 211.56 167.029 211.784 166.533 211.928C166.053 212.072 165.549 212.144 165.021 212.144ZM158.829 201.176V199.28H166.941V201.176H158.829ZM178.486 212V209.312L178.366 208.808V204.224C178.366 203.248 178.078 202.496 177.502 201.968C176.942 201.424 176.094 201.152 174.958 201.152C174.206 201.152 173.47 201.28 172.75 201.536C172.03 201.776 171.422 202.104 170.926 202.52L169.966 200.792C170.622 200.264 171.406 199.864 172.318 199.592C173.246 199.304 174.214 199.16 175.222 199.16C176.966 199.16 178.31 199.584 179.254 200.432C180.198 201.28 180.67 202.576 180.67 204.32V212H178.486ZM174.31 212.144C173.366 212.144 172.534 211.984 171.814 211.664C171.11 211.344 170.566 210.904 170.182 210.344C169.798 209.768 169.606 209.12 169.606 208.4C169.606 207.712 169.766 207.088 170.086 206.528C170.422 205.968 170.958 205.52 171.694 205.184C172.446 204.848 173.454 204.68 174.718 204.68H178.75V206.336H174.814C173.662 206.336 172.886 206.528 172.486 206.912C172.086 207.296 171.886 207.76 171.886 208.304C171.886 208.928 172.134 209.432 172.63 209.816C173.126 210.184 173.814 210.368 174.694 210.368C175.558 210.368 176.31 210.176 176.95 209.792C177.606 209.408 178.078 208.848 178.366 208.112L178.822 209.696C178.518 210.448 177.982 211.048 177.214 211.496C176.446 211.928 175.478 212.144 174.31 212.144ZM173.59 197.432L176.854 194.312H179.782L175.75 197.432H173.59ZM194.715 212L189.147 199.28H191.547L196.491 210.8H195.339L200.379 199.28H202.635L197.067 212H194.715ZM212.283 212V209.312L212.163 208.808V204.224C212.163 203.248 211.875 202.496 211.299 201.968C210.739 201.424 209.891 201.152 208.755 201.152C208.003 201.152 207.267 201.28 206.547 201.536C205.827 201.776 205.219 202.104 204.723 202.52L203.763 200.792C204.419 200.264 205.203 199.864 206.115 199.592C207.043 199.304 208.011 199.16 209.019 199.16C210.763 199.16 212.107 199.584 213.051 200.432C213.995 201.28 214.467 202.576 214.467 204.32V212H212.283ZM208.107 212.144C207.163 212.144 206.331 211.984 205.611 211.664C204.907 211.344 204.363 210.904 203.979 210.344C203.595 209.768 203.403 209.12 203.403 208.4C203.403 207.712 203.563 207.088 203.883 206.528C204.219 205.968 204.755 205.52 205.491 205.184C206.243 204.848 207.251 204.68 208.515 204.68H212.547V206.336H208.611C207.459 206.336 206.683 206.528 206.283 206.912C205.883 207.296 205.683 207.76 205.683 208.304C205.683 208.928 205.931 209.432 206.427 209.816C206.923 210.184 207.611 210.368 208.491 210.368C209.355 210.368 210.107 210.176 210.747 209.792C211.403 209.408 211.875 208.848 212.163 208.112L212.619 209.696C212.315 210.448 211.779 211.048 211.011 211.496C210.243 211.928 209.275 212.144 208.107 212.144ZM224.275 212.144C222.979 212.144 221.819 211.864 220.795 211.304C219.787 210.744 218.995 209.976 218.419 209C217.843 208.024 217.555 206.904 217.555 205.64C217.555 204.376 217.843 203.256 218.419 202.28C218.995 201.304 219.787 200.544 220.795 200C221.819 199.44 222.979 199.16 224.275 199.16C225.427 199.16 226.451 199.392 227.347 199.856C228.259 200.304 228.963 200.976 229.459 201.872L227.707 203C227.291 202.376 226.779 201.92 226.171 201.632C225.579 201.328 224.939 201.176 224.251 201.176C223.419 201.176 222.675 201.36 222.019 201.728C221.363 202.096 220.843 202.616 220.459 203.288C220.075 203.944 219.883 204.728 219.883 205.64C219.883 206.552 220.075 207.344 220.459 208.016C220.843 208.688 221.363 209.208 222.019 209.576C222.675 209.944 223.419 210.128 224.251 210.128C224.939 210.128 225.579 209.984 226.171 209.696C226.779 209.392 227.291 208.928 227.707 208.304L229.459 209.408C228.963 210.288 228.259 210.968 227.347 211.448C226.451 211.912 225.427 212.144 224.275 212.144ZM232.278 212V199.28H234.582V212H232.278ZM233.43 196.832C232.982 196.832 232.606 196.688 232.302 196.4C232.014 196.112 231.87 195.76 231.87 195.344C231.87 194.912 232.014 194.552 232.302 194.264C232.606 193.976 232.982 193.832 233.43 193.832C233.878 193.832 234.246 193.976 234.534 194.264C234.838 194.536 234.99 194.88 234.99 195.296C234.99 195.728 234.846 196.096 234.558 196.4C234.27 196.688 233.894 196.832 233.43 196.832ZM244.429 212.144C243.149 212.144 242.013 211.864 241.021 211.304C240.029 210.744 239.245 209.976 238.669 209C238.093 208.008 237.805 206.888 237.805 205.64C237.805 204.376 238.093 203.256 238.669 202.28C239.245 201.304 240.029 200.544 241.021 200C242.013 199.44 243.149 199.16 244.429 199.16C245.693 199.16 246.821 199.44 247.813 200C248.821 200.544 249.605 201.304 250.165 202.28C250.741 203.24 251.029 204.36 251.029 205.64C251.029 206.904 250.741 208.024 250.165 209C249.605 209.976 248.821 210.744 247.813 211.304C246.821 211.864 245.693 212.144 244.429 212.144ZM244.429 210.128C245.245 210.128 245.973 209.944 246.613 209.576C247.269 209.208 247.781 208.688 248.149 208.016C248.517 207.328 248.701 206.536 248.701 205.64C248.701 204.728 248.517 203.944 248.149 203.288C247.781 202.616 247.269 202.096 246.613 201.728C245.973 201.36 245.245 201.176 244.429 201.176C243.613 201.176 242.885 201.36 242.245 201.728C241.605 202.096 241.093 202.616 240.709 203.288C240.325 203.944 240.133 204.728 240.133 205.64C240.133 206.536 240.325 207.328 240.709 208.016C241.093 208.688 241.605 209.208 242.245 209.576C242.885 209.944 243.613 210.128 244.429 210.128Z" fill="#303030"/>
</svg>
