<svg width="88" height="88" viewBox="0 0 88 88" fill="none" xmlns="http://www.w3.org/2000/svg">
<rect x="3" y="3" width="82" height="82" rx="41" stroke="#76B939" stroke-width="6"/>
<path fill-rule="evenodd" clip-rule="evenodd" d="M67.2128 17.1406C67.9145 16.7185 68.7524 16.5847 69.5507 16.7671C70.3489 16.9496 71.0455 17.4341 71.4941 18.1191L74.6291 22.9008C75.0378 23.5255 75.2127 24.2744 75.1229 25.0155C75.0331 25.7565 74.6844 26.442 74.1383 26.951L74.1288 26.9636L74.0845 27.0048L73.904 27.1726L73.1915 27.8535C69.2491 31.6777 65.4262 35.6232 61.7281 39.6841C54.771 47.3348 46.5091 57.3478 40.9485 67.0631C39.3968 69.7738 35.6063 70.3565 33.358 68.0163L12.8221 46.6793C12.5279 46.3734 12.2981 46.0115 12.1464 45.615C11.9948 45.2185 11.9244 44.7956 11.9395 44.3714C11.9546 43.9472 12.0548 43.5303 12.2341 43.1456C12.4135 42.7609 12.6684 42.4162 12.9836 42.132L19.1903 36.5333C19.7357 36.0415 20.4351 35.7546 21.1688 35.7217C21.9024 35.6888 22.6247 35.9119 23.212 36.3528L33.6905 44.2093C50.059 28.0688 59.3405 21.8748 67.2128 17.1406Z" fill="#76B939"/>
</svg>
