<svg width="43" height="43" viewBox="0 0 43 43" fill="none" xmlns="http://www.w3.org/2000/svg">
<path fill-rule="evenodd" clip-rule="evenodd" d="M17.8157 5.82324H25.183C28.4761 5.82324 31.0848 5.82324 33.1255 6.09737C35.2253 6.38045 36.9256 6.97528 38.2676 8.31545C39.6077 9.65741 40.2026 11.3577 40.4856 13.4575C40.6469 14.6633 40.7132 16.0662 40.7401 17.6912C40.7623 17.8275 40.7647 17.9663 40.7472 18.1033C40.758 19.1162 40.7622 20.2151 40.7598 21.4V21.6007C40.7598 24.8937 40.7598 27.5024 40.4856 29.5431C40.2026 31.643 39.6077 33.3432 38.2676 34.6852C36.9256 36.0254 35.2253 36.6202 33.1255 36.9033C31.083 37.1774 28.4761 37.1774 25.183 37.1774H17.8157C14.5226 37.1774 11.9139 37.1774 9.87323 36.9033C7.77339 36.6202 6.0731 36.0254 4.73114 34.6852C3.39097 33.3432 2.79614 31.643 2.51306 29.5431C2.23893 27.5006 2.23893 24.8937 2.23893 21.6007V21.4C2.23654 20.2151 2.24072 19.1162 2.25147 18.1033C2.23341 17.9664 2.23522 17.8276 2.25685 17.6912C2.28552 16.0662 2.35181 14.6633 2.51306 13.4575C2.79614 11.3577 3.39097 9.65741 4.73114 8.31545C6.0731 6.97528 7.77339 6.38045 9.87323 6.09737C11.9157 5.82324 14.5226 5.82324 17.8157 5.82324ZM4.93002 19.2607C4.92763 19.9559 4.92643 20.7024 4.92643 21.5003C4.92643 24.917 4.93002 27.3447 5.17727 29.1866C5.41914 30.9872 5.87422 32.0264 6.6321 32.7842C7.38997 33.5421 8.42914 33.9972 10.2316 34.2391C12.0734 34.4863 14.4993 34.4899 17.916 34.4899H25.0827C28.4994 34.4899 30.9271 34.4863 32.7689 34.2391C34.5696 33.9972 35.6087 33.5421 36.3666 32.7842C37.1245 32.0264 37.5796 30.9872 37.8214 29.1848C38.0687 27.3429 38.0723 24.917 38.0723 21.5003C38.0723 20.7024 38.0711 19.9559 38.0687 19.2607H4.93002ZM38.0257 16.5732H4.97302C5.00885 15.5215 5.06977 14.6132 5.17727 13.8141C5.41914 12.0135 5.87422 10.9743 6.6321 10.2164C7.38997 9.45853 8.42914 9.00345 10.2316 8.76158C12.0734 8.51433 14.4993 8.51074 17.916 8.51074H25.0827C28.4994 8.51074 30.9271 8.51433 32.7689 8.76158C34.5696 9.00345 35.6087 9.45853 36.3666 10.2164C37.1245 10.9743 37.5796 12.0135 37.8214 13.8159C37.9289 14.6132 37.9899 15.5215 38.0257 16.5732ZM9.4056 28.667C9.4056 28.3106 9.54717 27.9688 9.79918 27.7168C10.0512 27.4648 10.393 27.3232 10.7494 27.3232H17.916C18.2724 27.3232 18.6142 27.4648 18.8662 27.7168C19.1182 27.9688 19.2598 28.3106 19.2598 28.667C19.2598 29.0234 19.1182 29.3652 18.8662 29.6172C18.6142 29.8692 18.2724 30.0107 17.916 30.0107H10.7494C10.393 30.0107 10.0512 29.8692 9.79918 29.6172C9.54717 29.3652 9.4056 29.0234 9.4056 28.667ZM21.0514 28.667C21.0514 28.3106 21.193 27.9688 21.445 27.7168C21.697 27.4648 22.0388 27.3232 22.3952 27.3232H25.0827C25.4391 27.3232 25.7809 27.4648 26.0329 27.7168C26.2849 27.9688 26.4264 28.3106 26.4264 28.667C26.4264 29.0234 26.2849 29.3652 26.0329 29.6172C25.7809 29.8692 25.4391 30.0107 25.0827 30.0107H22.3952C22.0388 30.0107 21.697 29.8692 21.445 29.6172C21.193 29.3652 21.0514 29.0234 21.0514 28.667Z" fill="#303030"/>
</svg>
