<svg width="24" height="24" viewBox="0 0 24 24" fill="none" xmlns="http://www.w3.org/2000/svg">
<g clip-path="url(#clip0_1350_19332)">
<path d="M19.4628 2.33119C20.2464 2.94559 20.7864 3.93799 21.0072 4.97719L21.0852 5.00839L23.5392 6.14359C23.6763 6.2067 23.7925 6.30765 23.8741 6.43457C23.9557 6.56149 23.9994 6.70908 24 6.85999V21.7004C23.9991 21.8237 23.9697 21.9451 23.914 22.0551C23.8584 22.1651 23.778 22.2607 23.6791 22.3344C23.5803 22.4081 23.4658 22.4579 23.3445 22.4799C23.2232 22.5019 23.0984 22.4955 22.98 22.4612L16.1772 20.5412L8.0892 22.7708C7.94331 22.8111 7.78899 22.8095 7.644 22.766L0.5688 20.66C0.405265 20.612 0.261588 20.5125 0.159114 20.3763C0.0566412 20.2401 0.000839592 20.0744 0 19.904L0 4.79719C0 4.26919 0.5136 3.88999 1.026 4.03879L7.8684 6.03199L11.346 4.96759C11.394 4.95319 11.4428 4.94319 11.4924 4.93759C11.6268 4.15039 12.0024 3.39439 12.6324 2.65759C13.38 1.78159 14.6916 1.26799 15.9696 1.20679C17.2956 1.14319 18.3084 1.42639 19.4616 2.32999M1.5996 5.85679V19.3148L7.4436 21.0536V7.55719L1.5996 5.85679ZM11.4504 6.59359L9.0432 7.32919V20.864L15.1212 19.1912V15.2372C15.1212 14.8004 15.48 14.4464 15.9216 14.4464C16.3632 14.4464 16.7208 14.8004 16.7208 15.2384V19.0508L22.4004 20.6528V7.36279L21.0564 6.73879C21.034 6.87079 21.0048 6.99999 20.9688 7.12639C20.7088 8.04688 20.271 8.9075 19.68 9.65959L16.7076 13.3712C16.6293 13.4688 16.5294 13.5468 16.4157 13.5989C16.302 13.6511 16.1777 13.676 16.0527 13.6717C15.9277 13.6674 15.8054 13.634 15.6955 13.5741C15.5857 13.5142 15.4914 13.4295 15.42 13.3268L12.642 9.30319C12.1828 8.66399 11.8624 8.08959 11.6808 7.57999C11.5666 7.26106 11.4893 6.9301 11.4504 6.59359ZM16.0464 2.78839C15.1752 2.83039 14.28 3.18079 13.854 3.67879C13.3416 4.27879 13.0896 4.84039 13.0392 5.40919C12.9792 6.09439 13.02 6.57799 13.1904 7.05679C13.3164 7.41079 13.5672 7.85959 13.9548 8.40079L16.128 11.5472L18.42 8.68519C18.8827 8.09445 19.2255 7.419 19.4292 6.69679C19.7172 5.68879 19.2828 4.20799 18.4692 3.57199C17.6352 2.91799 17.0052 2.74159 16.0476 2.78839M16.2132 3.62479C17.538 3.62479 18.6132 4.68679 18.6132 5.99719C18.6091 6.6299 18.354 7.23512 17.904 7.67993C17.454 8.12474 16.8459 8.37278 16.2132 8.36959C14.8884 8.36959 13.8132 7.30759 13.8132 5.99719C13.8132 4.68679 14.8884 3.62479 16.2132 3.62479ZM16.2132 5.20639C16.1087 5.20576 16.0051 5.22571 15.9084 5.26511C15.8116 5.30451 15.7235 5.36258 15.6492 5.43602C15.5749 5.50945 15.5158 5.5968 15.4752 5.69309C15.4346 5.78938 15.4134 5.89271 15.4128 5.99719C15.4128 6.43399 15.7716 6.78799 16.2132 6.78799C16.3177 6.78846 16.4212 6.76835 16.5179 6.72881C16.6146 6.68926 16.7026 6.63106 16.7768 6.55751C16.851 6.48397 16.91 6.39653 16.9505 6.30018C16.9909 6.20383 17.0119 6.10047 17.0124 5.99599C17.0108 5.7854 16.9258 5.58403 16.776 5.43602C16.6262 5.28801 16.4238 5.20543 16.2132 5.20639Z" fill="#303030"/>
</g>
<defs>
<clipPath id="clip0_1350_19332">
<rect width="24" height="24" fill="white"/>
</clipPath>
</defs>
</svg>
