<svg width="377" height="100" viewBox="0 0 377 100" fill="none" xmlns="http://www.w3.org/2000/svg">
<path d="M102 41L274 42" stroke="#909090" stroke-dasharray="2 2"/>
<path d="M75.5 17.5V22.5H80.5V42.5H85.5V17.5H75.5ZM80.5 5C83.783 5 87.0339 5.64664 90.0671 6.90301C93.1002 8.15938 95.8562 10.0009 98.1777 12.3223C100.499 14.6438 102.341 17.3998 103.597 20.4329C104.853 23.4661 105.5 26.717 105.5 30C105.5 36.6304 102.866 42.9893 98.1777 47.6777C93.4893 52.3661 87.1304 55 80.5 55C77.217 55 73.9661 54.3534 70.9329 53.097C67.8998 51.8406 65.1438 49.9991 62.8223 47.6777C58.1339 42.9893 55.5 36.6304 55.5 30C55.5 23.3696 58.1339 17.0107 62.8223 12.3223C67.5107 7.63392 73.8696 5 80.5 5Z" fill="#76B939"/>
<path d="M28.912 96L23.984 84.8H25.712L30.24 95.136H29.248L33.808 84.8H35.408L30.496 96H28.912ZM41.2356 96V94.208L41.1556 93.872V90.816C41.1556 90.1653 40.9636 89.664 40.5796 89.312C40.2063 88.9493 39.641 88.768 38.8836 88.768C38.3823 88.768 37.8916 88.8533 37.4116 89.024C36.9316 89.184 36.5263 89.4027 36.1956 89.68L35.5556 88.528C35.993 88.176 36.5156 87.9093 37.1236 87.728C37.7423 87.536 38.3876 87.44 39.0596 87.44C40.2223 87.44 41.1183 87.7227 41.7476 88.288C42.377 88.8533 42.6916 89.7173 42.6916 90.88V96H41.2356ZM38.4516 96.096C37.8223 96.096 37.2676 95.9893 36.7876 95.776C36.3183 95.5627 35.9556 95.2693 35.6996 94.896C35.4436 94.512 35.3156 94.08 35.3156 93.6C35.3156 93.1413 35.4223 92.7253 35.6356 92.352C35.8596 91.9787 36.217 91.68 36.7076 91.456C37.209 91.232 37.881 91.12 38.7236 91.12H41.4116V92.224H38.7876C38.0196 92.224 37.5023 92.352 37.2356 92.608C36.969 92.864 36.8356 93.1733 36.8356 93.536C36.8356 93.952 37.001 94.288 37.3316 94.544C37.6623 94.7893 38.121 94.912 38.7076 94.912C39.2836 94.912 39.785 94.784 40.2116 94.528C40.649 94.272 40.9636 93.8987 41.1556 93.408L41.4596 94.464C41.257 94.9653 40.8996 95.3653 40.3876 95.664C39.8756 95.952 39.2303 96.096 38.4516 96.096ZM45.5341 96V84.128H47.0701V96H45.5341ZM50.0029 96V87.52H51.5389V96H50.0029ZM50.7709 85.888C50.4722 85.888 50.2215 85.792 50.0189 85.6C49.8269 85.408 49.7309 85.1733 49.7309 84.896C49.7309 84.608 49.8269 84.368 50.0189 84.176C50.2215 83.984 50.4722 83.888 50.7709 83.888C51.0695 83.888 51.3149 83.984 51.5069 84.176C51.7095 84.3573 51.8109 84.5867 51.8109 84.864C51.8109 85.152 51.7149 85.3973 51.5229 85.6C51.3309 85.792 51.0802 85.888 50.7709 85.888ZM57.9756 96.096C57.1543 96.096 56.4183 95.9147 55.7676 95.552C55.1276 95.1893 54.621 94.6827 54.2476 94.032C53.8743 93.3813 53.6876 92.624 53.6876 91.76C53.6876 90.896 53.8743 90.144 54.2476 89.504C54.621 88.8533 55.1276 88.3467 55.7676 87.984C56.4183 87.6213 57.1543 87.44 57.9756 87.44C58.6903 87.44 59.3356 87.6 59.9116 87.92C60.4876 88.24 60.9463 88.72 61.2876 89.36C61.6396 90 61.8156 90.8 61.8156 91.76C61.8156 92.72 61.645 93.52 61.3036 94.16C60.973 94.8 60.5196 95.2853 59.9436 95.616C59.3676 95.936 58.7116 96.096 57.9756 96.096ZM58.1036 94.752C58.637 94.752 59.117 94.6293 59.5436 94.384C59.981 94.1387 60.3223 93.792 60.5676 93.344C60.8236 92.8853 60.9516 92.3573 60.9516 91.76C60.9516 91.152 60.8236 90.6293 60.5676 90.192C60.3223 89.744 59.981 89.3973 59.5436 89.152C59.117 88.9067 58.637 88.784 58.1036 88.784C57.5596 88.784 57.0743 88.9067 56.6476 89.152C56.221 89.3973 55.8796 89.744 55.6236 90.192C55.3676 90.6293 55.2396 91.152 55.2396 91.76C55.2396 92.3573 55.3676 92.8853 55.6236 93.344C55.8796 93.792 56.221 94.1387 56.6476 94.384C57.0743 94.6293 57.5596 94.752 58.1036 94.752ZM60.9996 96V93.712L61.0956 91.744L60.9356 89.776V84.128H62.4716V96H60.9996ZM70.6419 96V94.208L70.5619 93.872V90.816C70.5619 90.1653 70.3699 89.664 69.9859 89.312C69.6125 88.9493 69.0472 88.768 68.2899 88.768C67.7885 88.768 67.2979 88.8533 66.8179 89.024C66.3379 89.184 65.9325 89.4027 65.6019 89.68L64.9619 88.528C65.3992 88.176 65.9219 87.9093 66.5299 87.728C67.1485 87.536 67.7939 87.44 68.4659 87.44C69.6285 87.44 70.5245 87.7227 71.1539 88.288C71.7832 88.8533 72.0979 89.7173 72.0979 90.88V96H70.6419ZM67.8579 96.096C67.2285 96.096 66.6739 95.9893 66.1939 95.776C65.7245 95.5627 65.3619 95.2693 65.1059 94.896C64.8499 94.512 64.7219 94.08 64.7219 93.6C64.7219 93.1413 64.8285 92.7253 65.0419 92.352C65.2659 91.9787 65.6232 91.68 66.1139 91.456C66.6152 91.232 67.2872 91.12 68.1299 91.12H70.8179V92.224H68.1939C67.4259 92.224 66.9085 92.352 66.6419 92.608C66.3752 92.864 66.2419 93.1733 66.2419 93.536C66.2419 93.952 66.4072 94.288 66.7379 94.544C67.0685 94.7893 67.5272 94.912 68.1139 94.912C68.6899 94.912 69.1912 94.784 69.6179 94.528C70.0552 94.272 70.3699 93.8987 70.5619 93.408L70.8659 94.464C70.6632 94.9653 70.3059 95.3653 69.7939 95.664C69.2819 95.952 68.6365 96.096 67.8579 96.096ZM74.9404 96V87.52H76.4124V89.824L76.2684 89.248C76.503 88.6613 76.8977 88.2133 77.4524 87.904C78.007 87.5947 78.6897 87.44 79.5004 87.44V88.928C79.4364 88.9173 79.3724 88.912 79.3084 88.912C79.255 88.912 79.2017 88.912 79.1484 88.912C78.327 88.912 77.6764 89.1573 77.1964 89.648C76.7164 90.1387 76.4764 90.848 76.4764 91.776V96H74.9404ZM89.4958 96.096C88.6318 96.096 87.8584 95.9093 87.1758 95.536C86.5038 95.1627 85.9758 94.6507 85.5918 94C85.2078 93.3493 85.0158 92.6027 85.0158 91.76C85.0158 90.9173 85.2078 90.1707 85.5918 89.52C85.9758 88.8693 86.5038 88.3627 87.1758 88C87.8584 87.6267 88.6318 87.44 89.4958 87.44C90.2638 87.44 90.9464 87.5947 91.5438 87.904C92.1518 88.2027 92.6211 88.6507 92.9518 89.248L91.7838 90C91.5064 89.584 91.1651 89.28 90.7598 89.088C90.3651 88.8853 89.9384 88.784 89.4798 88.784C88.9251 88.784 88.4291 88.9067 87.9918 89.152C87.5544 89.3973 87.2078 89.744 86.9518 90.192C86.6958 90.6293 86.5678 91.152 86.5678 91.76C86.5678 92.368 86.6958 92.896 86.9518 93.344C87.2078 93.792 87.5544 94.1387 87.9918 94.384C88.4291 94.6293 88.9251 94.752 89.4798 94.752C89.9384 94.752 90.3651 94.656 90.7598 94.464C91.1651 94.2613 91.5064 93.952 91.7838 93.536L92.9518 94.272C92.6211 94.8587 92.1518 95.312 91.5438 95.632C90.9464 95.9413 90.2638 96.096 89.4958 96.096ZM98.4474 96.096C97.594 96.096 96.8367 95.9093 96.1754 95.536C95.514 95.1627 94.9914 94.6507 94.6074 94C94.2234 93.3387 94.0314 92.592 94.0314 91.76C94.0314 90.9173 94.2234 90.1707 94.6074 89.52C94.9914 88.8693 95.514 88.3627 96.1754 88C96.8367 87.6267 97.594 87.44 98.4474 87.44C99.29 87.44 100.042 87.6267 100.703 88C101.375 88.3627 101.898 88.8693 102.271 89.52C102.655 90.16 102.847 90.9067 102.847 91.76C102.847 92.6027 102.655 93.3493 102.271 94C101.898 94.6507 101.375 95.1627 100.703 95.536C100.042 95.9093 99.29 96.096 98.4474 96.096ZM98.4474 94.752C98.9914 94.752 99.4767 94.6293 99.9034 94.384C100.341 94.1387 100.682 93.792 100.927 93.344C101.173 92.8853 101.295 92.3573 101.295 91.76C101.295 91.152 101.173 90.6293 100.927 90.192C100.682 89.744 100.341 89.3973 99.9034 89.152C99.4767 88.9067 98.9914 88.784 98.4474 88.784C97.9034 88.784 97.418 88.9067 96.9914 89.152C96.5647 89.3973 96.2234 89.744 95.9674 90.192C95.7114 90.6293 95.5834 91.152 95.5834 91.76C95.5834 92.3573 95.7114 92.8853 95.9674 93.344C96.2234 93.792 96.5647 94.1387 96.9914 94.384C97.418 94.6293 97.9034 94.752 98.4474 94.752ZM104.972 96V87.52H106.444V89.824L106.3 89.248C106.534 88.6613 106.929 88.2133 107.484 87.904C108.038 87.5947 108.721 87.44 109.532 87.44V88.928C109.468 88.9173 109.404 88.912 109.34 88.912C109.286 88.912 109.233 88.912 109.18 88.912C108.358 88.912 107.708 89.1573 107.228 89.648C106.748 90.1387 106.508 90.848 106.508 91.776V96H104.972ZM111.425 96V87.52H112.897V89.824L112.753 89.248C112.987 88.6613 113.382 88.2133 113.937 87.904C114.491 87.5947 115.174 87.44 115.985 87.44V88.928C115.921 88.9173 115.857 88.912 115.793 88.912C115.739 88.912 115.686 88.912 115.633 88.912C114.811 88.912 114.161 89.1573 113.681 89.648C113.201 90.1387 112.961 90.848 112.961 91.776V96H111.425ZM121.576 96.096C120.669 96.096 119.869 95.9093 119.176 95.536C118.493 95.1627 117.96 94.6507 117.576 94C117.202 93.3493 117.016 92.6027 117.016 91.76C117.016 90.9173 117.197 90.1707 117.56 89.52C117.933 88.8693 118.44 88.3627 119.08 88C119.73 87.6267 120.461 87.44 121.272 87.44C122.093 87.44 122.818 87.6213 123.448 87.984C124.077 88.3467 124.568 88.8587 124.92 89.52C125.282 90.1707 125.464 90.9333 125.464 91.808C125.464 91.872 125.458 91.9467 125.448 92.032C125.448 92.1173 125.442 92.1973 125.432 92.272H118.216V91.168H124.632L124.008 91.552C124.018 91.008 123.906 90.5227 123.672 90.096C123.437 89.6693 123.112 89.3387 122.696 89.104C122.29 88.8587 121.816 88.736 121.272 88.736C120.738 88.736 120.264 88.8587 119.848 89.104C119.432 89.3387 119.106 89.6747 118.872 90.112C118.637 90.5387 118.52 91.0293 118.52 91.584V91.84C118.52 92.4053 118.648 92.912 118.904 93.36C119.17 93.7973 119.538 94.1387 120.008 94.384C120.477 94.6293 121.016 94.752 121.624 94.752C122.125 94.752 122.578 94.6667 122.984 94.496C123.4 94.3253 123.762 94.0693 124.072 93.728L124.92 94.72C124.536 95.168 124.056 95.5093 123.48 95.744C122.914 95.9787 122.28 96.096 121.576 96.096ZM131.229 96.096C130.375 96.096 129.618 95.9093 128.957 95.536C128.295 95.1627 127.773 94.6507 127.389 94C127.005 93.3387 126.813 92.592 126.813 91.76C126.813 90.9173 127.005 90.1707 127.389 89.52C127.773 88.8693 128.295 88.3627 128.957 88C129.618 87.6267 130.375 87.44 131.229 87.44C132.071 87.44 132.823 87.6267 133.485 88C134.157 88.3627 134.679 88.8693 135.053 89.52C135.437 90.16 135.629 90.9067 135.629 91.76C135.629 92.6027 135.437 93.3493 135.053 94C134.679 94.6507 134.157 95.1627 133.485 95.536C132.823 95.9093 132.071 96.096 131.229 96.096ZM131.229 94.752C131.773 94.752 132.258 94.6293 132.685 94.384C133.122 94.1387 133.463 93.792 133.709 93.344C133.954 92.8853 134.077 92.3573 134.077 91.76C134.077 91.152 133.954 90.6293 133.709 90.192C133.463 89.744 133.122 89.3973 132.685 89.152C132.258 88.9067 131.773 88.784 131.229 88.784C130.685 88.784 130.199 88.9067 129.773 89.152C129.346 89.3973 129.005 89.744 128.749 90.192C128.493 90.6293 128.365 91.152 128.365 91.76C128.365 92.3573 128.493 92.8853 128.749 93.344C129.005 93.792 129.346 94.1387 129.773 94.384C130.199 94.6293 130.685 94.752 131.229 94.752Z" fill="#76B939"/>
<path d="M289 17.5V22.5H299V27.5H294C292.674 27.5 291.402 28.0268 290.464 28.9645C289.527 29.9021 289 31.1739 289 32.5V42.5H304V37.5H294V32.5H299C300.326 32.5 301.598 31.9732 302.536 31.0355C303.473 30.0979 304 28.8261 304 27.5V22.5C304 21.1739 303.473 19.9021 302.536 18.9645C301.598 18.0268 300.326 17.5 299 17.5H289ZM296.5 5C299.783 5 303.034 5.64664 306.067 6.90301C309.1 8.15938 311.856 10.0009 314.178 12.3223C316.499 14.6438 318.341 17.3998 319.597 20.4329C320.853 23.4661 321.5 26.717 321.5 30C321.5 36.6304 318.866 42.9893 314.178 47.6777C309.489 52.3661 303.13 55 296.5 55C293.217 55 289.966 54.3534 286.933 53.097C283.9 51.8406 281.144 49.9991 278.822 47.6777C274.134 42.9893 271.5 36.6304 271.5 30C271.5 23.3696 274.134 17.0107 278.822 12.3223C283.511 7.63392 289.87 5 296.5 5Z" fill="#909090"/>
<path d="M237.912 96L232.984 84.8H234.712L239.24 95.136H238.248L242.808 84.8H244.408L239.496 96H237.912ZM248.748 96.096C247.841 96.096 247.041 95.9093 246.348 95.536C245.665 95.1627 245.132 94.6507 244.748 94C244.374 93.3493 244.188 92.6027 244.188 91.76C244.188 90.9173 244.369 90.1707 244.732 89.52C245.105 88.8693 245.612 88.3627 246.252 88C246.902 87.6267 247.633 87.44 248.444 87.44C249.265 87.44 249.99 87.6213 250.62 87.984C251.249 88.3467 251.74 88.8587 252.092 89.52C252.454 90.1707 252.636 90.9333 252.636 91.808C252.636 91.872 252.63 91.9467 252.62 92.032C252.62 92.1173 252.614 92.1973 252.604 92.272H245.388V91.168H251.804L251.18 91.552C251.19 91.008 251.078 90.5227 250.844 90.096C250.609 89.6693 250.284 89.3387 249.868 89.104C249.462 88.8587 248.988 88.736 248.444 88.736C247.91 88.736 247.436 88.8587 247.02 89.104C246.604 89.3387 246.278 89.6747 246.044 90.112C245.809 90.5387 245.692 91.0293 245.692 91.584V91.84C245.692 92.4053 245.82 92.912 246.076 93.36C246.342 93.7973 246.71 94.1387 247.18 94.384C247.649 94.6293 248.188 94.752 248.796 94.752C249.297 94.752 249.75 94.6667 250.156 94.496C250.572 94.3253 250.934 94.0693 251.244 93.728L252.092 94.72C251.708 95.168 251.228 95.5093 250.652 95.744C250.086 95.9787 249.452 96.096 248.748 96.096ZM254.769 96V87.52H256.241V89.824L256.097 89.248C256.331 88.6613 256.726 88.2133 257.281 87.904C257.835 87.5947 258.518 87.44 259.329 87.44V88.928C259.265 88.9173 259.201 88.912 259.137 88.912C259.083 88.912 259.03 88.912 258.977 88.912C258.155 88.912 257.505 89.1573 257.025 89.648C256.545 90.1387 256.305 90.848 256.305 91.776V96H254.769ZM261.222 96V87.52H262.758V96H261.222ZM261.99 85.888C261.691 85.888 261.44 85.792 261.238 85.6C261.046 85.408 260.95 85.1733 260.95 84.896C260.95 84.608 261.046 84.368 261.238 84.176C261.44 83.984 261.691 83.888 261.99 83.888C262.288 83.888 262.534 83.984 262.726 84.176C262.928 84.3573 263.03 84.5867 263.03 84.864C263.03 85.152 262.934 85.3973 262.742 85.6C262.55 85.792 262.299 85.888 261.99 85.888ZM265.914 96V86.768C265.914 85.936 266.154 85.2747 266.634 84.784C267.125 84.2827 267.818 84.032 268.714 84.032C269.045 84.032 269.36 84.0747 269.658 84.16C269.968 84.2347 270.229 84.3573 270.442 84.528L269.978 85.696C269.818 85.568 269.637 85.472 269.434 85.408C269.232 85.3333 269.018 85.296 268.794 85.296C268.346 85.296 268.005 85.424 267.77 85.68C267.536 85.9253 267.418 86.2933 267.418 86.784V87.92L267.45 88.624V96H265.914ZM264.474 88.784V87.52H269.882V88.784H264.474ZM271.338 96V87.52H272.874V96H271.338ZM272.106 85.888C271.808 85.888 271.557 85.792 271.354 85.6C271.162 85.408 271.066 85.1733 271.066 84.896C271.066 84.608 271.162 84.368 271.354 84.176C271.557 83.984 271.808 83.888 272.106 83.888C272.405 83.888 272.65 83.984 272.842 84.176C273.045 84.3573 273.146 84.5867 273.146 84.864C273.146 85.152 273.05 85.3973 272.858 85.6C272.666 85.792 272.416 85.888 272.106 85.888ZM279.496 96.096C278.632 96.096 277.858 95.9093 277.176 95.536C276.504 95.1627 275.976 94.6507 275.592 94C275.208 93.3493 275.016 92.6027 275.016 91.76C275.016 90.9173 275.208 90.1707 275.592 89.52C275.976 88.8693 276.504 88.3627 277.176 88C277.858 87.6267 278.632 87.44 279.496 87.44C280.264 87.44 280.946 87.5947 281.544 87.904C282.152 88.2027 282.621 88.6507 282.952 89.248L281.784 90C281.506 89.584 281.165 89.28 280.76 89.088C280.365 88.8853 279.938 88.784 279.48 88.784C278.925 88.784 278.429 88.9067 277.992 89.152C277.554 89.3973 277.208 89.744 276.952 90.192C276.696 90.6293 276.568 91.152 276.568 91.76C276.568 92.368 276.696 92.896 276.952 93.344C277.208 93.792 277.554 94.1387 277.992 94.384C278.429 94.6293 278.925 94.752 279.48 94.752C279.938 94.752 280.365 94.656 280.76 94.464C281.165 94.2613 281.506 93.952 281.784 93.536L282.952 94.272C282.621 94.8587 282.152 95.312 281.544 95.632C280.946 95.9413 280.264 96.096 279.496 96.096ZM290.204 96V94.208L290.124 93.872V90.816C290.124 90.1653 289.932 89.664 289.548 89.312C289.175 88.9493 288.61 88.768 287.852 88.768C287.351 88.768 286.86 88.8533 286.38 89.024C285.9 89.184 285.495 89.4027 285.164 89.68L284.524 88.528C284.962 88.176 285.484 87.9093 286.092 87.728C286.711 87.536 287.356 87.44 288.028 87.44C289.191 87.44 290.087 87.7227 290.716 88.288C291.346 88.8533 291.66 89.7173 291.66 90.88V96H290.204ZM287.42 96.096C286.791 96.096 286.236 95.9893 285.756 95.776C285.287 95.5627 284.924 95.2693 284.668 94.896C284.412 94.512 284.284 94.08 284.284 93.6C284.284 93.1413 284.391 92.7253 284.604 92.352C284.828 91.9787 285.186 91.68 285.676 91.456C286.178 91.232 286.85 91.12 287.692 91.12H290.38V92.224H287.756C286.988 92.224 286.471 92.352 286.204 92.608C285.938 92.864 285.804 93.1733 285.804 93.536C285.804 93.952 285.97 94.288 286.3 94.544C286.631 94.7893 287.09 94.912 287.676 94.912C288.252 94.912 288.754 94.784 289.18 94.528C289.618 94.272 289.932 93.8987 290.124 93.408L290.428 94.464C290.226 94.9653 289.868 95.3653 289.356 95.664C288.844 95.952 288.199 96.096 287.42 96.096ZM294.503 96V87.52H295.975V89.824L295.831 89.248C296.066 88.6613 296.46 88.2133 297.015 87.904C297.57 87.5947 298.252 87.44 299.063 87.44V88.928C298.999 88.9173 298.935 88.912 298.871 88.912C298.818 88.912 298.764 88.912 298.711 88.912C297.89 88.912 297.239 89.1573 296.759 89.648C296.279 90.1387 296.039 90.848 296.039 91.776V96H294.503ZM309.058 96.096C308.194 96.096 307.421 95.9093 306.738 95.536C306.066 95.1627 305.538 94.6507 305.154 94C304.77 93.3493 304.578 92.6027 304.578 91.76C304.578 90.9173 304.77 90.1707 305.154 89.52C305.538 88.8693 306.066 88.3627 306.738 88C307.421 87.6267 308.194 87.44 309.058 87.44C309.826 87.44 310.509 87.5947 311.106 87.904C311.714 88.2027 312.184 88.6507 312.514 89.248L311.346 90C311.069 89.584 310.728 89.28 310.322 89.088C309.928 88.8853 309.501 88.784 309.042 88.784C308.488 88.784 307.992 88.9067 307.554 89.152C307.117 89.3973 306.77 89.744 306.514 90.192C306.258 90.6293 306.13 91.152 306.13 91.76C306.13 92.368 306.258 92.896 306.514 93.344C306.77 93.792 307.117 94.1387 307.554 94.384C307.992 94.6293 308.488 94.752 309.042 94.752C309.501 94.752 309.928 94.656 310.322 94.464C310.728 94.2613 311.069 93.952 311.346 93.536L312.514 94.272C312.184 94.8587 311.714 95.312 311.106 95.632C310.509 95.9413 309.826 96.096 309.058 96.096ZM318.01 96.096C317.157 96.096 316.399 95.9093 315.738 95.536C315.077 95.1627 314.554 94.6507 314.17 94C313.786 93.3387 313.594 92.592 313.594 91.76C313.594 90.9173 313.786 90.1707 314.17 89.52C314.554 88.8693 315.077 88.3627 315.738 88C316.399 87.6267 317.157 87.44 318.01 87.44C318.853 87.44 319.605 87.6267 320.266 88C320.938 88.3627 321.461 88.8693 321.834 89.52C322.218 90.16 322.41 90.9067 322.41 91.76C322.41 92.6027 322.218 93.3493 321.834 94C321.461 94.6507 320.938 95.1627 320.266 95.536C319.605 95.9093 318.853 96.096 318.01 96.096ZM318.01 94.752C318.554 94.752 319.039 94.6293 319.466 94.384C319.903 94.1387 320.245 93.792 320.49 93.344C320.735 92.8853 320.858 92.3573 320.858 91.76C320.858 91.152 320.735 90.6293 320.49 90.192C320.245 89.744 319.903 89.3973 319.466 89.152C319.039 88.9067 318.554 88.784 318.01 88.784C317.466 88.784 316.981 88.9067 316.554 89.152C316.127 89.3973 315.786 89.744 315.53 90.192C315.274 90.6293 315.146 91.152 315.146 91.76C315.146 92.3573 315.274 92.8853 315.53 93.344C315.786 93.792 316.127 94.1387 316.554 94.384C316.981 94.6293 317.466 94.752 318.01 94.752ZM316.794 86.288L318.97 84.208H320.922L318.234 86.288H316.794ZM328.038 96.096C327.217 96.096 326.481 95.9147 325.83 95.552C325.19 95.1893 324.683 94.6827 324.31 94.032C323.937 93.3813 323.75 92.624 323.75 91.76C323.75 90.896 323.937 90.144 324.31 89.504C324.683 88.8533 325.19 88.3467 325.83 87.984C326.481 87.6213 327.217 87.44 328.038 87.44C328.753 87.44 329.398 87.6 329.974 87.92C330.55 88.24 331.009 88.72 331.35 89.36C331.702 90 331.878 90.8 331.878 91.76C331.878 92.72 331.707 93.52 331.366 94.16C331.035 94.8 330.582 95.2853 330.006 95.616C329.43 95.936 328.774 96.096 328.038 96.096ZM328.166 94.752C328.699 94.752 329.179 94.6293 329.606 94.384C330.043 94.1387 330.385 93.792 330.63 93.344C330.886 92.8853 331.014 92.3573 331.014 91.76C331.014 91.152 330.886 90.6293 330.63 90.192C330.385 89.744 330.043 89.3973 329.606 89.152C329.179 88.9067 328.699 88.784 328.166 88.784C327.622 88.784 327.137 88.9067 326.71 89.152C326.283 89.3973 325.942 89.744 325.686 90.192C325.43 90.6293 325.302 91.152 325.302 91.76C325.302 92.3573 325.43 92.8853 325.686 93.344C325.942 93.792 326.283 94.1387 326.71 94.384C327.137 94.6293 327.622 94.752 328.166 94.752ZM331.062 96V93.712L331.158 91.744L330.998 89.776V84.128H332.534V96H331.062ZM335.44 96V87.52H336.976V96H335.44ZM336.208 85.888C335.91 85.888 335.659 85.792 335.456 85.6C335.264 85.408 335.168 85.1733 335.168 84.896C335.168 84.608 335.264 84.368 335.456 84.176C335.659 83.984 335.91 83.888 336.208 83.888C336.507 83.888 336.752 83.984 336.944 84.176C337.147 84.3573 337.248 84.5867 337.248 84.864C337.248 85.152 337.152 85.3973 336.96 85.6C336.768 85.792 336.518 85.888 336.208 85.888ZM343.621 99.2C342.842 99.2 342.085 99.088 341.349 98.864C340.624 98.6507 340.032 98.3413 339.573 97.936L340.309 96.752C340.704 97.0933 341.189 97.36 341.765 97.552C342.341 97.7547 342.944 97.856 343.573 97.856C344.576 97.856 345.312 97.6213 345.781 97.152C346.25 96.6827 346.485 95.968 346.485 95.008V93.216L346.645 91.536L346.565 89.84V87.52H348.021V94.848C348.021 96.3413 347.648 97.44 346.901 98.144C346.154 98.848 345.061 99.2 343.621 99.2ZM343.429 95.648C342.608 95.648 341.872 95.4773 341.221 95.136C340.581 94.784 340.069 94.2987 339.685 93.68C339.312 93.0613 339.125 92.3467 339.125 91.536C339.125 90.7147 339.312 90 339.685 89.392C340.069 88.7733 340.581 88.2933 341.221 87.952C341.872 87.6107 342.608 87.44 343.429 87.44C344.154 87.44 344.816 87.5893 345.413 87.888C346.01 88.176 346.485 88.624 346.837 89.232C347.2 89.84 347.381 90.608 347.381 91.536C347.381 92.4533 347.2 93.216 346.837 93.824C346.485 94.432 346.01 94.8907 345.413 95.2C344.816 95.4987 344.154 95.648 343.429 95.648ZM343.605 94.304C344.17 94.304 344.672 94.1867 345.109 93.952C345.546 93.7173 345.888 93.392 346.133 92.976C346.389 92.56 346.517 92.08 346.517 91.536C346.517 90.992 346.389 90.512 346.133 90.096C345.888 89.68 345.546 89.36 345.109 89.136C344.672 88.9013 344.17 88.784 343.605 88.784C343.04 88.784 342.533 88.9013 342.085 89.136C341.648 89.36 341.301 89.68 341.045 90.096C340.8 90.512 340.677 90.992 340.677 91.536C340.677 92.08 340.8 92.56 341.045 92.976C341.301 93.392 341.648 93.7173 342.085 93.952C342.533 94.1867 343.04 94.304 343.605 94.304ZM354.588 96.096C353.735 96.096 352.977 95.9093 352.316 95.536C351.655 95.1627 351.132 94.6507 350.748 94C350.364 93.3387 350.172 92.592 350.172 91.76C350.172 90.9173 350.364 90.1707 350.748 89.52C351.132 88.8693 351.655 88.3627 352.316 88C352.977 87.6267 353.735 87.44 354.588 87.44C355.431 87.44 356.183 87.6267 356.844 88C357.516 88.3627 358.039 88.8693 358.412 89.52C358.796 90.16 358.988 90.9067 358.988 91.76C358.988 92.6027 358.796 93.3493 358.412 94C358.039 94.6507 357.516 95.1627 356.844 95.536C356.183 95.9093 355.431 96.096 354.588 96.096ZM354.588 94.752C355.132 94.752 355.617 94.6293 356.044 94.384C356.481 94.1387 356.823 93.792 357.068 93.344C357.313 92.8853 357.436 92.3573 357.436 91.76C357.436 91.152 357.313 90.6293 357.068 90.192C356.823 89.744 356.481 89.3973 356.044 89.152C355.617 88.9067 355.132 88.784 354.588 88.784C354.044 88.784 353.559 88.9067 353.132 89.152C352.705 89.3973 352.364 89.744 352.108 90.192C351.852 90.6293 351.724 91.152 351.724 91.76C351.724 92.3573 351.852 92.8853 352.108 93.344C352.364 93.792 352.705 94.1387 353.132 94.384C353.559 94.6293 354.044 94.752 354.588 94.752Z" fill="#909090"/>
</svg>
